<svg width="34" height="34" viewBox="0 0 34 34" fill="none" xmlns="http://www.w3.org/2000/svg">
<path d="M23.5469 26.5838C21.9941 26.5838 20.4413 26.6186 18.8885 26.5768C15.0776 26.4759 12.4861 28.2833 10.8829 31.6474C9.95364 33.5974 10.1586 33.5035 8.54672 32.2145C4.21131 28.7442 1.48084 24.2581 0.400466 18.8239C-0.120616 16.2025 -0.10672 13.5254 0.289302 10.864C0.374412 10.2883 0.694009 10.0447 1.23246 10.0325C2.0384 10.0152 2.79397 9.78554 3.53043 9.49156C4.24605 9.20629 4.85572 8.79229 5.31948 8.13476C5.91525 7.29111 6.6604 6.57444 7.58966 6.09608C8.09859 5.83342 8.37129 5.46986 8.51372 4.90627C9.19633 2.20484 10.8916 0.88457 13.7002 0.865436C16.7173 0.846301 19.7344 0.882831 22.7514 0.84978C23.4722 0.841083 23.6824 1.16463 23.6928 1.79084C23.7224 3.55817 23.0675 4.99498 21.6259 6.03172C21.1916 6.34309 21.0318 6.55531 21.5842 6.91886C22.8556 7.75555 23.8405 8.89144 24.5839 10.1995C26.2705 13.1654 28.7473 15.2615 31.7575 16.7244C33.3155 17.481 34.1492 18.5265 33.9773 20.3008C33.8904 21.2018 34.0989 22.1255 33.8453 23.0144C33.22 25.2026 31.4031 26.556 29.0826 26.5803C28.1446 26.5907 27.2084 26.5803 26.2705 26.5803C25.362 26.5803 24.4536 26.5803 23.5452 26.5803L23.5469 26.5838ZM23.3854 24.9678C25.2908 24.9678 27.1962 24.9904 29.0999 24.9608C30.8508 24.933 32.2386 23.6893 32.4088 22.0333C32.4557 21.5688 32.3914 21.094 32.4349 20.6278C32.5373 19.5162 32.2629 18.6691 31.0818 18.2847C30.6458 18.142 30.2394 17.8672 29.8607 17.5958C29.2823 17.1818 28.7404 17.2427 28.1325 17.5297C26.8853 18.1194 26.0863 19.0605 25.7146 20.3843C25.5323 21.0296 25.0303 21.054 24.5144 20.9183C23.9325 20.7669 24.0871 20.3321 24.1879 19.9198C24.5509 18.4151 25.4159 17.2706 26.6995 16.4443C27.2518 16.0895 27.2814 15.8285 26.7551 15.3971C25.3099 14.2143 24.2226 12.7322 23.2412 11.1493C21.6676 8.61138 19.5832 6.87885 16.3734 7.08411C15.7984 7.12064 15.3937 6.95539 15.4042 6.26829C15.4146 5.58641 15.8314 5.45421 16.396 5.45073C17.2453 5.44551 18.1034 5.49074 18.9406 5.38115C20.2311 5.21416 21.2663 4.59664 21.7926 3.33029C21.9802 2.8815 21.9628 2.5023 21.3219 2.50403C18.6557 2.50925 15.986 2.43967 13.3233 2.54404C11.3119 2.62232 10.143 3.81213 10.0283 5.74644C9.97969 6.5727 9.68789 7.0041 8.91495 7.29981C7.72514 7.75555 6.84104 8.62182 6.29912 9.7838C5.94652 10.5405 6.14627 10.9075 6.96263 10.9945C8.45119 11.1528 9.94669 11.2624 11.3623 10.5718C12.0275 10.2465 12.2846 10.5457 12.2829 11.2102C12.2829 12.3548 12.2811 13.4994 12.2898 14.6439C12.2933 15.1727 12.071 15.505 11.5812 15.7398C10.3775 16.3156 9.81642 17.3175 9.81295 18.6413C9.80947 20.0311 10.4626 21.0435 11.6298 21.7463C11.8799 21.8976 12.1665 21.9881 12.4149 22.1411C12.9255 22.4542 12.6945 22.9169 12.6042 23.3292C12.5243 23.6945 12.2551 23.7328 11.9181 23.6562C9.71568 23.157 7.92316 20.6173 8.13159 18.3508C8.27228 16.8235 8.89758 15.5902 10.1517 14.7135C10.8238 14.2439 10.7405 13.5689 10.6102 12.9653C10.466 12.2974 9.87374 12.7201 9.49335 12.7235C8.05343 12.7392 6.62219 12.727 5.22048 12.3339C4.80882 12.2191 4.43364 12.0921 4.35027 11.5911C4.25647 11.0328 3.90909 11.0641 3.49743 11.2345C3.28205 11.3232 3.05451 11.4485 2.83392 11.4468C2.02624 11.4398 1.80913 11.9147 1.71186 12.6122C1.42005 14.71 1.68233 16.7818 2.09398 18.8187C2.99198 23.2718 5.18053 27.0169 8.54498 30.0697C9.29708 30.7516 9.36829 30.7603 9.90327 29.8993C11.9581 26.589 14.8744 24.8634 18.819 24.9661C20.3423 25.0061 21.8673 24.973 23.3906 24.9713L23.3854 24.9678Z" fill="white"/>
<path d="M19.8315 11.9651C19.8454 12.7966 19.1228 13.5394 18.2891 13.5498C17.464 13.5602 16.8405 12.9218 16.8057 12.033C16.7745 11.238 17.4571 10.5353 18.2856 10.5109C19.1176 10.4866 19.8176 11.1441 19.8315 11.9651Z" fill="white"/>
<path d="M29.2871 21.4628C28.6063 21.4785 27.9323 20.894 27.9375 20.2417C27.9427 19.5128 28.4465 19.2258 29.0752 19.1632C29.737 19.0971 30.4943 19.8138 30.4978 20.4435C30.4995 20.9775 29.942 21.4471 29.2871 21.4628Z" fill="white"/>
</svg>
