<svg width="32" height="33" viewBox="0 0 32 33" fill="none" xmlns="http://www.w3.org/2000/svg">
<path d="M31.9967 19.6883C32.0233 21.1848 31.9404 21.2374 30.8742 20.9055C28.5728 20.1877 26.1835 19.8821 23.8174 19.478C23.6267 19.4452 23.3962 19.3778 23.2702 19.5618C23.0994 19.8099 23.3498 19.9643 23.4841 20.1236C24.4607 21.2834 25.0974 22.586 25.1389 24.117C25.1936 26.0816 24.1208 27.5584 22.1891 28.0233C21.3385 28.227 21.0367 28.5917 21.1064 29.4458C21.1827 30.3822 21.1263 31.3284 21.1263 32.2696C21.1263 32.7345 20.9654 32.9973 20.4233 32.9365C16.0393 32.4388 11.7548 31.583 7.79855 29.5345C4.5918 27.8738 2.00352 25.6053 0.521192 22.2443C-0.12878 20.7708 -0.239872 19.3877 0.585857 17.8896C2.46613 14.4777 4.58517 11.2909 7.84498 8.99444C9.36876 7.92177 11.0152 7.12671 12.8474 6.74561C13.4062 6.62898 13.6533 6.37601 13.6682 5.79778C13.7014 4.57234 13.9351 3.37811 14.3497 2.22002C14.3961 2.09025 14.4359 1.95555 14.4956 1.8307C14.9184 0.922301 15.4357 0.0319672 16.5649 0.000756219C17.6261 -0.0288121 18.1367 0.813884 18.6159 1.62044C18.9227 2.13789 18.9558 2.96416 19.5511 3.12514C20.2094 3.30419 20.4929 2.47135 20.9704 2.12146C22.7479 0.820455 24.4789 1.34447 25.1737 3.43068C25.3395 3.9317 25.502 4.43271 25.492 4.96987C25.4854 5.4019 25.6595 5.56781 26.1155 5.46596C26.5764 5.36247 27.0523 5.27705 27.5232 5.26391C28.9027 5.22449 29.7583 6.20024 29.624 7.55874C29.4383 9.4429 28.6524 11.1332 27.8963 12.8268C27.6111 13.4625 27.7056 13.6909 28.3572 13.9931C30.9405 15.189 31.811 17.4477 31.9967 19.6867V19.6883ZM18.7403 31.1838C19.2626 31.2577 19.5577 31.0951 19.5411 30.5234C19.5246 29.9419 19.5362 29.3604 19.5428 28.7789C19.5461 28.4487 19.4383 28.1908 19.1366 28.0167C18.2561 27.5091 18.0422 26.6796 18.019 25.7498C17.9842 24.3437 18.3191 23.0082 18.7585 21.6858C18.8763 21.3343 19.0835 20.8891 18.3788 20.876C17.2298 20.8546 16.1039 20.6493 14.993 20.3815C10.8312 19.3795 8.53474 16.3668 11.322 12.1057C11.9769 11.1053 12.5423 10.0573 12.9917 8.94845C13.063 8.77268 13.1923 8.58706 13.0282 8.40801C12.8657 8.2306 12.6684 8.32916 12.4843 8.39487C11.2457 8.83839 10.0403 9.35091 8.95756 10.1065C5.5336 12.4934 3.34492 15.8329 1.58403 19.501C1.42983 19.8214 1.48454 20.1433 1.57574 20.4735C2.04 22.1655 2.89392 23.639 4.11262 24.9038C8.09701 29.0385 13.3581 30.2606 18.7419 31.1838H18.7403ZM18.4087 19.3696C18.994 19.3203 19.6058 19.5372 19.9209 18.7717C20.7897 16.6526 22.1526 14.9525 24.2999 13.9685C24.7409 13.7664 24.8387 13.4363 24.6613 13.0124C24.3712 12.3209 24.0313 11.6654 23.5338 11.0839C21.4529 8.64784 18.6309 8.08768 15.6247 7.9727C15.25 7.95791 14.9864 8.0959 14.8488 8.46386C14.1573 10.3119 13.1674 12.0104 12.2074 13.7303C11.1098 15.6966 11.7415 17.4148 13.8075 18.3528C15.2765 19.0197 16.8385 19.2809 18.4087 19.368V19.3696ZM15.2616 5.2442C15.2135 6.3448 15.2649 6.36944 16.1719 6.43843C20.3221 6.75054 23.9832 7.91027 25.9248 12.0186C26.1238 12.4391 26.3708 12.426 26.5499 12.0104C27.1518 10.6108 27.7918 9.22113 28.0571 7.70822C28.1682 7.0725 27.8565 6.76368 27.2032 6.84253C26.787 6.89345 26.3791 6.9953 25.9629 7.04787C24.6962 7.20721 23.9069 6.53863 23.9036 5.29512C23.9036 4.64791 23.8472 4.02204 23.4841 3.46189C23.179 2.99208 22.791 2.85245 22.2737 3.14157C21.8028 3.4044 21.448 3.78385 21.0898 4.1781C20.0435 5.32962 18.7851 5.18999 18.0107 3.8512C17.7189 3.3469 17.4801 2.81303 17.1817 2.31365C17.0358 2.06725 16.9512 1.68122 16.5715 1.7075C16.1752 1.73543 16.0691 2.11325 15.9398 2.41057C15.5136 3.38797 15.3578 4.42614 15.2616 5.2442ZM26.0591 15.0806C24.6232 15.1709 23.4824 16.1697 22.4859 17.3639C22.1958 17.7122 22.5506 17.8255 22.8557 17.8616C23.4642 17.9356 24.0744 18.0078 24.6829 18.0834C26.3194 18.2871 27.9361 18.5959 29.5394 18.9787C29.9755 19.0822 30.3569 19.0674 30.2143 18.43C29.8031 16.5738 28.1632 15.1693 26.0591 15.0789V15.0806ZM19.5743 25.2488C19.571 25.8648 19.4815 26.5301 20.269 26.7666C21.6353 27.1773 23.5173 25.8632 23.5653 24.4587C23.6217 22.7766 22.7164 21.5232 21.6303 20.3635C21.3501 20.0645 21.0749 20.0941 20.9157 20.4768C20.2724 22.0127 19.6622 23.5601 19.576 25.2488H19.5743Z" fill="white"/>
<path d="M20.6953 13.1586C20.6986 13.9569 20.0089 14.6222 19.1947 14.609C18.3806 14.5943 17.7505 13.9848 17.7423 13.2029C17.734 12.4407 18.4768 11.7097 19.2478 11.7212C20.0138 11.7327 20.692 12.4078 20.6953 13.1602V13.1586Z" fill="white"/>
</svg>
