<svg width="38" height="32" viewBox="0 0 38 32" fill="none" xmlns="http://www.w3.org/2000/svg">
<g clip-path="url(#clip0_3023_106)">
<path d="M37.867 23.944C37.8595 23.9413 37.8521 23.9383 37.8446 23.9357C37.8428 23.9351 37.8404 23.9342 37.8381 23.9333C37.8354 23.9321 37.8327 23.9309 37.83 23.93C37.8211 23.9268 37.81 23.9226 37.7975 23.9179C37.7879 23.9144 37.7787 23.9108 37.7692 23.9072C37.7641 23.9055 37.7587 23.9034 37.7533 23.9013C37.4769 23.7968 37.2013 23.69 36.9224 23.592C36.9197 23.5914 36.9174 23.5905 36.915 23.5893C36.8884 23.5801 36.8616 23.5707 36.8347 23.5615C36.8151 23.5547 36.7978 23.5479 36.7825 23.5405C36.6343 23.4854 36.521 23.444 36.4882 23.4324C36.4861 23.4318 36.4843 23.4312 36.4828 23.4306C36.4825 23.4306 36.4822 23.4303 36.4819 23.43C36.4598 23.4232 36.4345 23.4144 36.4047 23.404C34.2722 22.6568 32.0997 22.0487 29.8879 21.5822C28.5479 21.2995 27.1986 21.0697 25.8395 20.896C24.8702 20.7719 23.8988 20.6698 22.9235 20.6008C22.1462 20.5458 21.3687 20.5064 20.5897 20.4806C20.088 20.4638 19.587 20.4638 19.0856 20.4567C18.2013 20.4424 17.3179 20.478 16.4354 20.5224C14.9981 20.5952 13.5662 20.7302 12.1394 20.9205C9.44318 21.2799 6.79383 21.8516 4.18743 22.6219C3.37231 22.8625 2.56435 23.1257 1.76266 23.4067C1.75997 23.4075 1.75729 23.4084 1.75431 23.4096C1.74506 23.4129 1.73402 23.417 1.7206 23.4218C1.71702 23.4232 1.71285 23.4244 1.70897 23.4259C1.46232 23.5162 0.647202 23.8155 0.390111 23.9114C0.381461 23.9146 0.373707 23.9176 0.366549 23.9203C0.353724 23.925 0.342987 23.9292 0.334338 23.9324C0.30511 23.9437 0.271407 23.9508 0.241881 23.9712C0.220407 23.9857 0.20102 24.0073 0.186704 24.0422C0.252618 24.0292 0.300337 24.0224 0.346566 24.0103C0.625131 23.9369 0.904592 23.867 1.18137 23.7874C1.18167 23.7871 1.18226 23.7871 1.18286 23.7871C1.20582 23.7805 1.22909 23.7737 1.25205 23.7669C1.27591 23.7598 1.29798 23.7548 1.31797 23.7524C1.43309 23.7231 1.54195 23.6959 1.63381 23.6728C1.64992 23.6689 1.66543 23.6651 1.68004 23.6612C1.70092 23.6559 1.72209 23.6506 1.74297 23.6456C1.75609 23.642 1.76832 23.639 1.78025 23.6361C1.79129 23.6334 1.80203 23.6308 1.81306 23.6281C1.8226 23.6254 1.83185 23.6234 1.84139 23.621C1.85303 23.618 1.86466 23.6151 1.87629 23.6124C2.67739 23.4141 3.48236 23.2338 4.28794 23.0544C4.40008 23.0295 4.47643 23.0339 4.53847 23.1586C5.17941 24.4419 5.98975 25.6112 6.95489 26.6764C8.39692 28.2687 10.0877 29.531 12.0338 30.4544C13.5411 31.1696 15.1245 31.6359 16.7801 31.8576C17.8699 32.0035 18.9639 32.0367 20.0621 31.96C23.3729 31.7282 26.331 30.5873 28.9371 28.5544C30.8199 27.0858 32.293 25.2791 33.3685 23.1553C33.4445 23.0052 33.5292 22.9798 33.6867 23.0135C34.4311 23.1743 35.1744 23.34 35.9146 23.5194C35.9233 23.5212 35.9316 23.5233 35.9403 23.5254C35.9498 23.5277 35.9597 23.5301 35.9707 23.5328C36.0939 23.5627 36.2171 23.5929 36.3402 23.6236C36.388 23.6358 36.4232 23.6447 36.4479 23.6547C36.4482 23.6547 36.4488 23.6547 36.4491 23.655C36.5225 23.6737 36.5982 23.6932 36.6734 23.7125C36.702 23.7125 36.7345 23.7181 36.7724 23.729C36.946 23.7797 37.1205 23.8267 37.2955 23.8729C37.3066 23.8759 37.317 23.8785 37.3263 23.8806C37.334 23.8827 37.3415 23.8848 37.3492 23.8868C37.3603 23.8898 37.3698 23.8922 37.377 23.8939C37.3817 23.8951 37.3871 23.8966 37.3925 23.8981C37.5356 23.9351 37.6788 23.9718 37.8219 24.0094C37.8727 24.0227 37.9236 24.0502 37.9893 24.0266C37.9928 24.0251 37.9964 24.0236 38 24.0221C37.9597 23.9724 37.9117 23.9608 37.867 23.944ZM28.4226 23.3818C28.6472 23.1068 28.9049 22.8927 29.2977 22.9007C29.6943 22.909 30.4286 23.4292 30.3857 23.9937C30.3764 24.5644 29.7892 25.1488 29.2446 25.1299C28.7614 25.1127 28.1938 24.6133 28.1411 24.1388C28.1088 23.8475 28.2443 23.6003 28.4226 23.3818ZM28.0498 25.0902C28.0325 25.1346 27.9907 25.1704 27.9994 25.2335C28.0713 25.2471 28.1151 25.1891 28.1685 25.1636C28.3612 25.0719 28.5506 25.052 28.7283 25.1903C28.8986 25.3229 28.9562 25.5467 28.8891 25.7658C28.8288 25.9635 28.688 26.1041 28.541 26.2356C28.2947 26.4561 28.0397 26.6675 27.7873 26.8818C27.7584 26.9064 27.7298 26.9357 27.6916 26.9363C27.6656 26.9144 27.6707 26.8922 27.685 26.8797C27.8318 26.7525 27.776 26.6471 27.6656 26.5257C27.3304 26.1562 27.0032 25.78 26.6761 25.404C26.6209 25.3407 26.5735 25.3217 26.501 25.375C26.4598 25.4052 26.4199 25.4499 26.3346 25.4295C26.3999 25.3202 26.498 25.2672 26.5776 25.1974C26.7816 25.018 26.9886 24.8415 27.198 24.6684C27.2663 24.6124 27.3432 24.5653 27.4211 24.523C27.6263 24.4108 27.8058 24.4167 27.9329 24.5331C28.0844 24.6713 28.1282 24.8865 28.0498 25.0902ZM26.0748 27.7992C25.7938 27.3578 25.5156 26.9147 25.2403 26.4697C25.18 26.3726 25.124 26.3507 25.0297 26.4268C24.9453 26.4952 24.8535 26.5547 24.761 26.6121C24.6587 26.6755 24.6345 26.7477 24.6948 26.8581C24.7297 26.9221 24.8159 27.0307 24.7491 27.063C24.6581 27.1068 24.6372 26.9686 24.5964 26.9061C24.4383 26.6633 24.4422 26.6619 24.6864 26.5109C25.1207 26.243 25.554 25.9739 25.9877 25.7057C26.144 25.6092 26.1505 25.6109 26.2507 25.7702C26.2955 25.8413 26.3399 25.9126 26.3829 25.9845C26.4008 26.0144 26.4187 26.0505 26.3778 26.0745C26.3453 26.0935 26.3229 26.0665 26.3032 26.0437C26.2967 26.0363 26.291 26.028 26.2845 26.0206C26.0873 25.7971 26.0846 25.793 25.8287 25.944C25.5033 26.1361 25.5087 26.0645 25.7112 26.3877C25.9444 26.7599 26.1842 27.1284 26.4088 27.5056C26.4876 27.6382 26.5636 27.6853 26.7011 27.5979C26.736 27.5757 26.7772 27.5526 26.8723 27.5805C26.5392 27.7871 26.2376 27.9739 25.9099 28.177C25.92 28.0651 25.9862 28.0325 26.0363 27.9964C26.1162 27.9393 26.1294 27.8848 26.0748 27.7992ZM21.2703 29.3605C21.1817 28.9662 21.0922 28.5722 21.0022 28.1785C20.962 28.0026 20.8571 27.8968 20.6875 27.8611C20.7176 27.7998 20.7797 27.8057 20.8259 27.7951C21.2706 27.6927 21.7159 27.5929 22.1614 27.494C22.3452 27.4535 22.3595 27.4597 22.3932 27.6536C22.4078 27.7374 22.502 27.857 22.3983 27.9002C22.332 27.9277 22.3189 27.777 22.2825 27.7066C22.2506 27.645 22.2136 27.6163 22.1424 27.6311C21.924 27.6767 21.7054 27.7202 21.4862 27.7631C21.4006 27.78 21.3693 27.8271 21.3893 27.9114C21.4343 28.1033 21.4814 28.2948 21.5208 28.4878C21.5396 28.5799 21.5921 28.5968 21.6714 28.579C21.7537 28.5606 21.8358 28.5396 21.9184 28.523C22.0424 28.4985 22.1716 28.4819 22.148 28.304C22.1447 28.2794 22.1594 28.2542 22.1898 28.2528C22.2196 28.251 22.233 28.2741 22.239 28.2989C22.27 28.428 22.3013 28.5574 22.3288 28.6873C22.3353 28.719 22.341 28.7631 22.2954 28.7732C22.2608 28.7809 22.242 28.7477 22.2333 28.7202C22.194 28.5935 22.1075 28.5894 21.9986 28.6204C21.8987 28.6492 21.7958 28.6678 21.6944 28.6915C21.6136 28.7104 21.5781 28.7534 21.5995 28.8413C21.6491 29.0423 21.6938 29.2442 21.7382 29.4464C21.7585 29.537 21.8074 29.5675 21.8996 29.5441C22.1113 29.4911 22.3228 29.4363 22.5369 29.3946C22.6932 29.3641 22.7544 29.2841 22.7409 29.1275C22.7359 29.0677 22.6998 28.96 22.7881 28.9526C22.8626 28.9464 22.8406 29.0559 22.8501 29.1124C22.908 29.4561 22.9536 29.4221 22.6067 29.5003C22.1761 29.5971 21.7451 29.6927 21.3141 29.7883C21.2533 29.8016 21.1915 29.8111 21.1301 29.8223C21.2645 29.6982 21.3112 29.5443 21.2703 29.3605ZM22.8251 27.8883C22.8271 27.5728 22.9688 27.3297 23.2298 27.1589C23.5075 26.9768 23.8212 26.8877 24.1469 26.8315C24.2432 26.8149 24.2966 26.8413 24.3273 26.9327C24.3539 27.0121 24.3909 27.0876 24.4219 27.1654C24.4311 27.1888 24.4335 27.216 24.4058 27.2294C24.3789 27.2421 24.359 27.2252 24.3431 27.2045C24.3372 27.1968 24.3291 27.1894 24.3258 27.1805C24.2462 26.9564 24.0631 26.9754 23.8823 26.9979C23.4254 27.0553 23.1612 27.4129 23.2551 27.8608C23.3225 28.1823 23.4371 28.4857 23.6971 28.711C24.0169 28.9881 24.6077 28.8718 24.8019 28.4958C24.8493 28.4043 24.7932 28.3238 24.7843 28.238C24.7804 28.2004 24.7547 28.1515 24.8075 28.1367C24.8597 28.1222 24.8693 28.1773 24.8812 28.2116C25.0181 28.6071 25.0992 28.5207 24.7016 28.7679C24.4824 28.9043 24.2471 29.0065 23.9855 29.0417C23.5617 29.0985 23.2 28.9215 22.9989 28.5393C22.8925 28.3368 22.8233 28.1216 22.8251 27.8883ZM10.1667 22.0695C11.0913 21.9475 12.0192 21.8563 12.9479 21.7725C13.9166 21.6852 14.8871 21.6189 15.8582 21.5777C16.9394 21.5322 18.0214 21.4895 19.1044 21.5144C20.1724 21.4898 21.2396 21.5319 22.3061 21.5774C23.3864 21.6233 24.4654 21.6976 25.5424 21.801C26.288 21.8723 27.0334 21.9439 27.7763 22.0402C27.9421 22.0618 27.9511 22.0777 27.8535 22.2142C27.3352 22.9413 26.7384 23.5967 26.0581 24.1802C25.039 25.0544 23.894 25.7101 22.6309 26.1666C21.23 26.6731 19.7793 26.8694 18.297 26.7794C16.0548 26.6435 14.038 25.888 12.2599 24.5195C11.4221 23.8747 10.6994 23.1201 10.0844 22.2637C9.96631 22.0994 9.9678 22.0955 10.1667 22.0695ZM19.7203 29.5535C19.7122 29.4405 19.7027 29.3277 19.7 29.2146C19.6976 29.1077 19.6603 29.0737 19.5521 29.113C19.3552 29.1844 19.1521 29.2264 18.9398 29.211C18.6182 29.1873 18.4357 29.0313 18.3949 28.7285C18.3749 28.5775 18.3671 28.4245 18.3588 28.2723C18.3507 28.1237 18.4011 27.9464 18.1455 27.9283C18.4303 27.8735 18.6934 27.8614 18.9746 27.8999C18.7116 27.9695 18.7918 28.1574 18.8011 28.3197C18.807 28.4277 18.8097 28.5361 18.8172 28.6441C18.8381 28.9372 18.9976 29.0663 19.2923 29.0304C19.6708 28.9843 19.6761 28.9804 19.6672 28.6113C19.663 28.4342 19.6463 28.2575 19.64 28.0805C19.6368 27.9908 19.6004 27.9425 19.507 27.9399C19.473 27.939 19.4366 27.9363 19.4065 27.8842C19.7074 27.8327 20.0009 27.8371 20.3042 27.8507C20.2923 27.8789 20.2908 27.8928 20.2852 27.8949C20.0624 27.9754 20.0701 27.9748 20.0859 28.2152C20.114 28.6423 20.1345 29.0701 20.1527 29.4979C20.1638 29.7608 20.159 29.7611 20.3884 29.881H19.4921C19.4876 29.8632 19.5067 29.8549 19.5252 29.8487C19.6664 29.8013 19.7314 29.7029 19.7203 29.5535ZM17.8052 29.4852C17.7626 29.2279 17.6495 29.0929 17.3736 29.1018C17.2314 29.1062 17.0873 29.0799 16.9448 29.0618C16.8726 29.0527 16.8347 29.082 16.8073 29.1438C16.7596 29.2519 16.7139 29.362 16.6552 29.4641C16.5875 29.5814 16.6101 29.6453 16.7458 29.6696C16.7718 29.674 16.8076 29.6752 16.812 29.7155C16.6978 29.7519 16.4216 29.7196 16.2904 29.6471C16.4577 29.6169 16.4926 29.4822 16.5499 29.3667C16.7906 28.8809 17.0351 28.3966 17.2678 27.9067C17.3304 27.775 17.4145 27.7391 17.5493 27.7551C17.6853 27.7711 17.7855 27.7969 17.8279 27.9597C17.9704 28.5076 18.1312 29.0509 18.2854 29.5959C18.3182 29.7125 18.3382 29.8374 18.4715 29.9058C18.19 29.9292 17.9239 29.8697 17.6555 29.8297C17.8634 29.7217 17.8452 29.7247 17.8052 29.4852ZM15.4878 28.2078C15.6244 28.6042 15.7595 29.0005 15.8907 29.3987C15.9179 29.4807 15.988 29.518 16.0593 29.5808C15.9406 29.6267 15.8567 29.5553 15.7658 29.5447C15.5358 29.5177 15.4147 29.3972 15.3655 29.1663C15.3133 28.9215 15.2224 28.6847 15.1445 28.4458C15.1263 28.3895 15.1314 28.2951 15.0479 28.301C14.9569 28.3078 14.8457 28.333 14.8126 28.4307C14.7461 28.6264 14.6983 28.8283 14.645 29.0281C14.6297 29.0855 14.6643 29.1172 14.7124 29.1447C14.7657 29.1752 14.8361 29.1808 14.8961 29.2871C14.5573 29.1885 14.2554 29.1009 13.9456 29.0112C13.9649 28.9843 13.9718 28.9698 13.9757 28.9704C14.1675 29.0074 14.2265 28.9049 14.2674 28.7365C14.3756 28.2915 14.4991 27.8499 14.6256 27.4094C14.6658 27.2696 14.6611 27.1699 14.5027 27.1228C14.4809 27.1166 14.4553 27.1047 14.46 27.0506C14.7652 27.1189 15.0595 27.2086 15.3569 27.3102C15.3429 27.3318 15.3393 27.3392 15.3375 27.3392C15.0846 27.2892 15.0533 27.4659 15.0139 27.6432C14.9799 27.7972 14.9322 27.9478 14.8922 28.1003C14.8827 28.1373 14.8597 28.1826 14.8931 28.2122C14.9307 28.2457 14.9674 28.2036 14.9996 28.187C15.2814 28.0414 15.5627 27.8946 15.8427 27.7457C16.0267 27.6477 16.0259 27.6459 15.9095 27.4937C16.0291 27.4872 16.376 27.5864 16.5162 27.6758C16.1276 27.6494 15.8746 27.91 15.5657 28.0331C15.4801 28.0674 15.4583 28.1213 15.4878 28.2078ZM12.4251 27.1317C12.0305 27.2782 11.6359 27.4239 11.2413 27.5704C11.1605 27.6003 11.0806 27.6299 11.0126 27.5452C11.0123 27.5044 11.0463 27.4993 11.0722 27.4899C11.8053 27.2172 12.5384 26.9452 13.2715 26.6731C13.3529 26.6429 13.4332 26.6195 13.5107 26.7282C13.1382 26.8667 12.7815 26.9993 12.4251 27.1317ZM13.027 28.2116C12.9193 28.3804 12.7982 28.5375 12.5676 28.5393C12.1731 28.5414 11.9449 28.1755 12.1274 27.8294C12.1617 27.7646 12.2029 27.7018 12.25 27.6456C12.4564 27.4005 12.6834 27.3694 12.9255 27.5485C13.154 27.7175 13.1925 27.9523 13.027 28.2116ZM11.2992 25.748C11.1334 26.1121 10.8763 26.4046 10.5479 26.6281C10.2222 26.8501 9.86789 26.7856 9.66866 26.4934C9.56159 26.3365 9.55413 26.1607 9.61438 25.9967C9.78736 25.5269 10.0874 25.1518 10.5431 24.9265C10.9362 24.7323 11.3723 25.0174 11.3663 25.4591C11.3708 25.5535 11.3421 25.6536 11.2992 25.748ZM11.4358 26.073C11.5435 25.8794 11.6729 25.7051 11.8736 25.7027C12.293 25.7101 12.5193 26.06 12.3723 26.3877C12.3356 26.4694 12.284 26.5411 12.225 26.6086C12.0213 26.841 11.811 26.8691 11.5566 26.6974C11.3415 26.552 11.2938 26.3276 11.4358 26.073ZM10.1265 24.0041C10.3111 24.1974 10.349 24.4499 10.2159 24.7009C10.0051 25.0979 9.6791 25.3785 9.28004 25.5799C9.19057 25.6251 9.09244 25.6432 9.01072 25.6397C8.53412 25.6408 8.27106 25.1624 8.50817 24.7447C8.72381 24.3649 9.04114 24.0846 9.43543 23.8951C9.67284 23.7811 9.96423 23.8341 10.1265 24.0041ZM7.16664 23.5665C7.21317 23.5265 7.24389 23.5881 7.27222 23.6165C7.45326 23.7977 7.45326 23.7992 7.66263 23.6521C7.99459 23.4185 8.32624 23.1846 8.657 22.9496C8.80016 22.8477 8.79837 22.8471 8.65431 22.74C8.60779 22.7053 8.54784 22.6843 8.51682 22.5976C8.6737 22.5976 8.78137 22.6861 8.90246 22.7326C8.99879 22.7693 9.0999 22.803 9.17894 22.8738C9.25857 22.9454 9.27766 23.0064 9.1679 23.0822C8.71993 23.3916 8.28031 23.7128 7.83144 24.0206C7.71035 24.1035 7.66979 24.1746 7.76463 24.301C7.79863 24.3463 7.8735 24.4247 7.81146 24.4638C7.74883 24.5032 7.7187 24.3996 7.68411 24.3528C7.52007 24.1302 7.35931 23.9055 7.19975 23.6796C7.17649 23.647 7.12161 23.6053 7.16664 23.5665ZM32.8116 23.0227C32.4991 23.6174 32.1585 24.1953 31.7755 24.7486C31.2199 25.5511 30.5986 26.3004 29.8972 26.9798C27.6179 29.1873 24.917 30.6024 21.783 31.1862C20.8548 31.3591 19.9168 31.4491 19.1536 31.4372C17.1717 31.4414 15.4249 31.1459 13.7296 30.5476C11.9366 29.915 10.3162 28.9849 8.86875 27.7619C7.31159 26.4466 6.06372 24.8839 5.12542 23.0792C5.06458 22.9624 5.09838 22.8915 5.22683 22.8664C5.36313 22.8397 5.50032 22.8164 5.63543 22.7853C5.73445 22.7622 5.78724 22.7953 5.83466 22.885C6.24893 23.6618 6.72911 24.3969 7.27759 25.0875C8.14371 26.1778 9.14165 27.1317 10.2753 27.9449C12.0743 29.2356 14.0664 30.0802 16.2472 30.4855C17.4333 30.7063 18.6311 30.7812 19.8339 30.7051C22.8546 30.5136 25.5746 29.5106 27.9806 27.6817C29.3493 26.6414 30.4993 25.3996 31.4337 23.9614C31.6625 23.6091 31.8796 23.2501 32.0711 22.8767C32.1319 22.7577 32.2008 22.7039 32.3398 22.7447C32.4582 22.7796 32.5829 22.7927 32.7046 22.8158C32.8826 22.8495 32.8937 22.8664 32.8116 23.0227ZM0.592324 12.3589H0.593219C1.32154 12.4237 2.05017 12.4871 2.77909 12.5412C3.57065 12.6002 4.3631 12.6478 5.15525 12.6976C5.92264 12.7458 6.69034 12.7932 7.45803 12.8367C7.93881 12.8636 8.41989 12.8844 8.90067 12.9042C9.82822 12.9424 10.7555 12.977 11.6827 13.0152C12.0201 13.0291 12.3577 13.0279 12.6953 13.041C13.3452 13.0664 13.996 13.0646 14.6462 13.0845C15.7634 13.1182 16.8809 13.0975 17.9982 13.117C19.5079 13.1431 21.0174 13.1093 22.5268 13.0981C23.6983 13.0895 24.8699 13.0528 26.0411 13.0176C27.073 12.9862 28.1047 12.9462 29.136 12.8986C30.2315 12.8476 31.3267 12.7893 32.4212 12.7221C33.3568 12.665 34.2919 12.5922 35.2269 12.5229C35.9981 12.4661 36.7691 12.4068 37.5398 12.3423C37.541 12.3417 37.5419 12.3411 37.5428 12.3411C37.6302 12.3349 37.8032 12.305 37.8032 12.305C37.8032 12.305 37.6931 12.2636 37.5174 12.2636H37.5061C36.6119 12.2716 35.7178 12.2834 34.8245 12.3228C34.6906 12.3284 34.6307 12.2855 34.5985 12.1549C34.1409 10.302 33.3712 8.58591 32.284 7.01366C30.4259 4.32714 27.9737 2.36797 24.9316 1.14031C23.5477 0.581986 22.1093 0.230295 20.6237 0.0843496C17.5514 -0.217311 14.6193 0.287726 11.8432 1.63854C10.5026 2.291 9.27974 3.11872 8.17115 4.11369C6.25847 5.82981 4.83373 7.87809 3.90021 10.263C3.65893 10.8793 3.4588 11.5087 3.30401 12.1514C3.2724 12.2825 3.21573 12.3284 3.08062 12.3219C2.22673 12.2822 1.37225 12.2784 0.517762 12.2647H0.516867C0.509112 12.2647 0.500761 12.2645 0.491814 12.2645C0.357005 12.2645 0.116914 12.2787 0.0313162 12.284C0.0280355 12.2843 0.025053 12.2846 0.0220705 12.2846C0.0196845 12.2849 0.0170002 12.2852 0.014316 12.2852C0.010737 12.2858 0.00745624 12.2858 0.003579 12.2858C0.001193 12.2861 0 12.2861 0 12.2861C0.00268425 12.2864 0.00507025 12.2867 0.00775449 12.2872C0.0665097 12.2949 0.435445 12.3438 0.579201 12.3577C0.583675 12.3577 0.588149 12.3586 0.592324 12.3589ZM8.42824 10.818C8.25496 11.1508 8.09927 11.4912 7.9758 11.8456C7.96506 11.8769 7.95581 11.9213 7.90988 11.911C7.85799 11.8991 7.86723 11.8518 7.87051 11.8133C7.89348 11.5519 7.89616 11.5463 7.65637 11.4447C7.07717 11.1993 6.49618 10.9572 5.89998 10.7547C5.67689 10.6789 5.64974 10.6996 5.54655 10.9139C5.53581 10.9361 5.52687 10.9595 5.51374 10.9802C5.49525 11.0096 5.47378 11.0442 5.43202 11.0226C5.39206 11.0022 5.4019 10.9649 5.41502 10.9314C5.46036 10.8171 5.5048 10.702 5.55341 10.5889C5.75562 10.1179 5.95277 9.64453 6.19972 9.19397C6.28323 9.04151 6.38195 8.90059 6.51646 8.78721C6.78578 8.56045 7.1392 8.60456 7.34858 8.88846C7.46579 9.04743 7.50396 9.22624 7.49382 9.42043C7.50754 9.70019 7.40882 9.95004 7.27133 10.1884C7.25433 10.2174 7.23166 10.2461 7.20512 10.2659C7.17738 10.2863 7.13741 10.2979 7.10968 10.2683C7.08373 10.2407 7.11415 10.215 7.12757 10.1901C7.35693 9.76887 7.1908 9.4006 6.72643 9.29314C6.56537 9.25584 6.43205 9.30468 6.31574 9.40859C6.15916 9.54832 6.08161 9.73512 6.01301 9.92695C5.97603 10.0309 6.06073 10.0581 6.12277 10.0883C6.45741 10.2499 6.79264 10.4095 7.13056 10.5643C7.40972 10.6919 7.69126 10.8148 7.9743 10.9335C8.15385 11.0087 8.18845 10.9924 8.28478 10.8275C8.29731 10.8062 8.30805 10.784 8.32266 10.7641C8.34831 10.7286 8.37396 10.6798 8.42794 10.7132C8.47357 10.7419 8.44584 10.7846 8.42824 10.818ZM11.7818 5.89553C11.7472 5.53289 11.7176 5.16995 11.681 4.80731C11.6681 4.68001 11.7057 4.59623 11.8253 4.53259C12.0132 4.43282 12.191 4.31441 12.375 4.20695C12.4096 4.18652 12.4573 4.13797 12.4922 4.18711C12.528 4.23773 12.4668 4.26053 12.4331 4.28599C12.2429 4.43045 12.2408 4.43667 12.3502 4.64774C12.5208 4.97664 12.7099 5.29429 12.9085 5.6072C12.9849 5.72768 13.0696 5.77268 13.2023 5.69305C13.236 5.67292 13.2921 5.63591 13.3195 5.69157C13.3473 5.74811 13.2823 5.76409 13.2459 5.78156C12.9768 5.91122 12.7308 6.0776 12.4838 6.24278C12.451 6.26469 12.4123 6.32242 12.3705 6.2718C12.324 6.21585 12.3836 6.18091 12.4227 6.15693C12.5554 6.07434 12.5504 5.97546 12.4743 5.85735C12.2924 5.57522 12.1137 5.29133 11.933 5.00832C11.9124 4.97634 11.8942 4.92483 11.8498 4.93697C11.794 4.95207 11.8119 5.01128 11.8137 5.05183C11.8325 5.49973 11.8718 5.94586 11.9464 6.38843C11.9488 6.40294 11.9556 6.41745 11.955 6.43166C11.9524 6.49797 12.0141 6.57612 11.95 6.62763C11.8799 6.68388 11.8101 6.61668 11.7445 6.58944C11.3138 6.41123 10.8825 6.2345 10.4426 6.08026C10.3886 6.06132 10.3361 6.02697 10.2643 6.04947C10.3129 6.18772 10.4295 6.26884 10.5166 6.37097C10.6764 6.55895 10.8414 6.74279 11.0009 6.93136C11.0952 7.04267 11.1936 7.08175 11.3177 6.97755C11.3362 6.96186 11.3597 6.9515 11.3827 6.94261C11.4069 6.93314 11.4331 6.93344 11.4501 6.95682C11.4683 6.98169 11.4567 7.00508 11.4352 7.02047C11.2574 7.14806 11.1023 7.30052 10.9487 7.45476C10.9261 7.47755 10.8975 7.48998 10.8706 7.46305C10.8453 7.43729 10.8572 7.40798 10.8754 7.38252C10.8954 7.3544 10.9156 7.32628 10.9392 7.30111C11.0036 7.23184 11.0084 7.15783 10.9473 7.08886C10.6627 6.76706 10.388 6.4361 10.0785 6.13651C10.0087 6.06901 9.93768 6.0773 9.867 6.13799C9.83329 6.167 9.7978 6.19423 9.76112 6.2191C9.73606 6.23627 9.70445 6.24959 9.67999 6.22177C9.64927 6.18713 9.67284 6.15634 9.69968 6.13296C9.91949 5.94172 10.1414 5.75255 10.3606 5.56042C10.4179 5.51039 10.4689 5.53437 10.5252 5.55776C10.8918 5.70933 11.2589 5.85942 11.6255 6.0104C11.7779 6.07316 11.797 6.05776 11.7818 5.89553ZM16.3122 3.14951C16.3665 3.52547 16.3662 3.52369 16.7339 3.46242C16.9296 3.42956 17.1258 3.39966 17.3226 3.37627C17.4589 3.35999 17.5183 3.30048 17.484 3.16105C17.47 3.10392 17.4682 3.04412 17.4601 2.9855C17.4336 2.78627 17.3906 2.74779 17.1863 2.73742C17.144 2.73506 17.0775 2.75075 17.0727 2.69687C17.0659 2.62315 17.1404 2.64269 17.1846 2.63855C17.5401 2.60362 17.8956 2.57076 18.2514 2.53819C18.2878 2.53493 18.3403 2.51392 18.345 2.57431C18.3486 2.61871 18.3003 2.61783 18.2678 2.627C18.0041 2.7022 17.9964 2.70279 18.0116 2.97721C18.0307 3.32624 18.065 3.67408 18.0903 4.02252C18.1002 4.1578 18.1652 4.23092 18.3051 4.23507C18.343 4.23625 18.3999 4.23063 18.4023 4.27977C18.4056 4.3446 18.3421 4.33424 18.3012 4.33335C17.997 4.32714 17.6972 4.36681 17.3981 4.41358C17.3635 4.41891 17.3209 4.42927 17.3098 4.38546C17.2982 4.33987 17.3432 4.33513 17.3751 4.3224C17.5938 4.23507 17.5976 4.23359 17.5794 4.00031C17.5684 3.85822 17.5383 3.7173 17.5284 3.57521C17.5216 3.47337 17.4825 3.42926 17.3778 3.43844C17.0894 3.48787 16.8013 3.53761 16.5129 3.58616C16.4389 3.59859 16.4124 3.63767 16.4282 3.71049C16.4691 3.89818 16.5069 4.08646 16.5478 4.27415C16.5743 4.397 16.665 4.41891 16.7745 4.41476C16.8111 4.41328 16.8675 4.397 16.8765 4.44733C16.8857 4.49913 16.829 4.50357 16.7924 4.50861C16.5013 4.5465 16.2188 4.62406 15.9358 4.69777C15.8961 4.70813 15.84 4.74336 15.8207 4.68268C15.8052 4.63501 15.8636 4.62199 15.8982 4.61044C16.0476 4.5616 16.0772 4.46568 16.0378 4.32181C15.9429 3.97485 15.8624 3.62405 15.7661 3.27769C15.702 3.04797 15.6844 3.04352 15.4535 3.07046C15.4162 3.07461 15.3631 3.10332 15.3485 3.05418C15.3282 2.98817 15.3983 2.99142 15.4356 2.98284C15.7881 2.90054 16.1413 2.8212 16.4947 2.74216C16.5371 2.73269 16.5952 2.71641 16.6039 2.77768C16.6116 2.83156 16.5496 2.82327 16.515 2.83423C16.2934 2.90528 16.28 2.92511 16.3122 3.14951ZM15.35 4.77504C15.3804 4.76497 15.4297 4.76438 15.4353 4.80908C15.4407 4.8523 15.3942 4.85615 15.362 4.86711C15.2027 4.92158 15.0422 4.97309 14.885 5.03229C14.7977 5.06545 14.7425 5.05687 14.7201 4.9568C14.7109 4.91506 14.7022 4.86119 14.6485 4.85645C14.594 4.85171 14.5781 4.90648 14.5585 4.94319C14.4284 5.18682 14.2548 5.37777 13.9769 5.45888C13.7207 5.53378 13.5587 5.4799 13.4311 5.26557C13.2975 5.04117 13.3204 4.84076 13.5098 4.6661C13.7147 4.47723 13.9584 4.34283 14.1988 4.20458C14.3759 4.10274 14.3834 4.06366 14.2629 3.89729C14.1508 3.74276 13.9727 3.67911 13.7762 3.72322C13.5182 3.78095 13.4072 3.88841 13.3655 4.11754C13.3553 4.17172 13.3708 4.25816 13.2888 4.25431C13.2023 4.25046 13.2062 4.15662 13.1865 4.09416C13.1803 4.07403 13.1889 4.04294 13.2017 4.02488C13.4684 3.65632 13.7863 3.36768 14.2587 3.35022C14.5424 3.35377 14.7079 3.47988 14.7905 3.73743C14.8824 4.0234 14.9754 4.30878 15.0706 4.59357C15.1144 4.72471 15.1776 4.83188 15.35 4.77504ZM10.2201 7.62083C10.3752 8.23718 9.64301 9.34495 8.81179 9.2218C8.33489 9.15104 8.00443 8.81563 8.01099 8.22948C8.02202 7.91628 8.23617 7.57613 8.52994 7.27447C8.74289 7.0557 8.99134 6.89762 9.3039 6.87334C9.73338 6.83989 10.1029 7.15369 10.2201 7.62083ZM29.2541 12.427C29.1721 12.4684 29.1324 12.3838 29.1011 12.3245C28.8518 11.8533 28.612 11.3766 28.2812 10.9536C28.1867 10.8331 28.0915 10.7132 27.9961 10.5933C27.9717 10.5628 27.9433 10.5158 27.9042 10.5329C27.8526 10.5554 27.8801 10.6108 27.8881 10.6514C27.9561 10.9894 28.0238 11.3278 28.0659 11.6703C28.093 11.89 28.1205 12.1099 28.1142 12.3328C28.1115 12.4237 28.0793 12.469 27.983 12.4702C27.0844 12.4811 26.1857 12.4939 25.2868 12.5054C25.2683 12.5057 25.2498 12.4977 25.2257 12.4924C25.2442 12.4142 25.3005 12.4252 25.3533 12.4211C25.6698 12.3974 25.9859 12.3663 26.3026 12.3491C26.4148 12.3432 26.4691 12.292 26.5159 12.2008C26.719 11.8059 26.9326 11.416 27.1315 11.019C27.2174 10.847 27.325 10.7014 27.4807 10.5883C27.5216 10.5584 27.5768 10.532 27.5732 10.4646C27.5147 10.4379 27.4652 10.4684 27.4154 10.4862C25.7894 11.0676 24.1821 11.6946 22.6228 12.4376C22.494 12.4992 22.3669 12.5315 22.2235 12.5294C19.4972 12.488 16.7706 12.5057 14.044 12.498C13.4588 12.4962 12.8737 12.4977 12.2861 12.4714C14.497 11.6268 16.8103 11.2627 19.1354 10.9524C17.0682 11.2337 15.0431 11.7067 13.0425 12.2917C13.0186 12.2988 12.9965 12.3097 12.9867 12.3497C13.0413 12.3849 13.0973 12.3722 13.1504 12.3719C15.2859 12.3586 17.4214 12.3405 19.5565 12.3334C20.054 12.3319 20.5255 12.2494 20.9926 12.0738C22.7493 11.4125 24.5507 10.8959 26.3802 10.4731C26.4264 10.4625 26.4792 10.4598 26.5219 10.4059C26.4178 10.342 26.2997 10.355 26.1953 10.3529C25.8529 10.3461 25.5117 10.3168 25.169 10.3106C24.8681 10.3053 24.568 10.26 24.2662 10.2422C23.9885 10.2262 23.7106 10.2162 23.4335 10.2049C22.6548 10.1727 21.8748 10.1357 21.0955 10.1661C20.1784 10.202 19.2625 10.2635 18.3453 10.3053C17.8151 10.3293 17.2848 10.3515 16.7554 10.3962C16.1917 10.4438 15.6304 10.5101 15.0697 10.5824C14.1391 10.7017 13.214 10.85 12.2921 11.0217C11.1689 11.2307 10.06 11.4956 8.96956 11.8358C8.92393 11.85 8.86905 11.8909 8.82998 11.8547C8.78196 11.8109 8.82789 11.7532 8.8446 11.7046C9.18102 10.744 9.68656 9.87574 10.3445 9.10101C12.0636 7.07672 14.2441 5.80228 16.846 5.25551C18.853 4.83365 20.8244 5.02075 22.7472 5.72413C24.183 6.2493 25.4574 7.03379 26.5606 8.0862C27.7957 9.26442 28.6979 10.6564 29.2482 12.2695C29.2658 12.3207 29.3218 12.3926 29.2541 12.427ZM19.298 2.57016C19.4847 2.50977 19.674 2.48165 19.8625 2.48964C20.1882 2.48017 20.4969 2.53197 20.7692 2.70131C21.341 3.05655 21.3532 3.84904 20.7722 4.21523C20.2685 4.53288 19.7218 4.48788 19.1891 4.26171C19.0063 4.18415 18.8703 4.03998 18.7868 3.86088C18.5643 3.38367 18.6436 2.78212 19.298 2.57016ZM21.8704 2.93784C21.8316 2.92185 21.7639 2.91445 21.7788 2.86057C21.7985 2.78953 21.8608 2.83275 21.9044 2.84311C22.3476 2.95027 22.7884 3.06721 23.2232 3.20368C23.3795 3.25253 23.5352 3.30759 23.6542 3.4266C23.8352 3.60777 23.7753 3.85525 23.5322 3.94259C23.4272 3.98048 23.3196 3.98492 23.2095 3.97693C23.1683 3.97397 23.1233 3.94555 23.0738 4.0012C23.151 4.04679 23.2241 4.0912 23.2984 4.13382C23.6205 4.31766 23.5242 4.72827 23.2441 4.85882C23.0705 4.93993 22.8856 4.95769 22.7058 4.91388C22.3595 4.82921 22.026 4.69777 21.6756 4.62613C21.647 4.62021 21.6142 4.61044 21.607 4.57729C21.5987 4.53969 21.6329 4.52696 21.6583 4.51542C21.7275 4.48463 21.7412 4.42128 21.7564 4.3594C21.8483 3.98166 21.9422 3.60422 22.0293 3.22529C22.0723 3.03879 22.0508 3.01155 21.8704 2.93784ZM26.4795 4.91891C26.4589 4.90529 26.4395 4.88931 26.4216 4.87243C26.3939 4.84609 26.3501 4.81826 26.3811 4.77504C26.4148 4.72827 26.4509 4.76586 26.4825 4.78836C26.5269 4.81974 26.5711 4.85201 26.6152 4.88398C26.8672 5.06723 27.1201 5.25018 27.3713 5.4349C27.4035 5.45888 27.4649 5.48434 27.427 5.53674C27.3886 5.59003 27.3471 5.53852 27.3131 5.51572C27.1148 5.3828 27.068 5.39079 26.9263 5.57996C26.8464 5.68683 26.7625 5.79074 26.6811 5.89642C26.6212 5.97428 26.6453 6.01128 26.7405 6.01158H27.0939C27.2526 6.01987 27.4348 5.99382 27.6182 5.98257C27.6761 5.97931 27.7339 5.96718 27.7551 5.91122C27.799 5.79636 27.8526 5.82804 27.9177 5.88873C28.0441 6.00684 28.173 6.12259 28.2997 6.24042C28.3278 6.26676 28.365 6.29933 28.3266 6.33988C28.2953 6.37304 28.2642 6.34136 28.2344 6.32479C27.9123 6.14539 27.5517 6.13207 27.198 6.08973C27.1172 6.07997 27.0924 6.12555 27.0984 6.1972C27.1085 6.32005 27.1204 6.44261 27.1276 6.56546C27.1416 6.80614 27.1515 7.04741 27.1661 7.28809C27.172 7.3917 27.187 7.49413 27.2389 7.58738C27.255 7.61639 27.2812 7.6531 27.2409 7.67886C27.2022 7.70343 27.1783 7.66346 27.1539 7.64126C27.0402 7.53883 26.9281 7.43433 26.8135 7.33279C26.7432 7.27062 26.7095 7.19691 26.6957 7.10307C26.6558 6.82775 26.6889 6.55096 26.6653 6.27624C26.6588 6.19986 26.6761 6.08263 26.6101 6.06043C26.5171 6.02905 26.4911 6.15575 26.4354 6.21229C26.3838 6.2644 26.3495 6.33278 26.3026 6.39021C26.1658 6.55806 26.1392 6.64007 26.3128 6.77269C26.342 6.79489 26.379 6.83219 26.339 6.87186C26.2994 6.91153 26.2657 6.87216 26.2373 6.84699C26.008 6.64214 25.7533 6.47103 25.4977 6.3014C25.4637 6.27861 25.3978 6.26499 25.4285 6.20844C25.4577 6.15397 25.5096 6.18861 25.5439 6.21348C25.6796 6.31235 25.7774 6.27268 25.8657 6.14391C26.0834 5.82626 26.3059 5.51158 26.5272 5.1963C26.6036 5.08706 26.5925 4.99529 26.4795 4.91891ZM29.238 7.52551C29.1799 7.40384 29.0892 7.30615 28.9863 7.21882C28.9314 7.17204 28.8688 7.17471 28.8032 7.18477C28.7396 7.19454 28.6758 7.20757 28.612 7.20934C28.5559 7.21112 28.5195 7.17323 28.5571 7.12379C28.6072 7.05807 28.6731 6.98584 28.7683 7.01899C29.1506 7.1528 29.4993 7.3322 29.6711 7.73037C29.7149 7.8322 29.7286 7.90088 29.7286 8.03114C29.7444 8.2129 29.6213 8.34079 29.4626 8.44914C29.2335 8.60515 29.0042 8.76057 28.7781 8.92043C28.5881 9.05453 28.5884 9.06164 28.6579 9.27656C28.6672 9.30498 28.6833 9.33666 28.6511 9.35619C28.6168 9.37692 28.5953 9.34613 28.5804 9.32156C28.4846 9.16525 28.3665 9.02552 28.2517 8.88342C28.1983 8.81741 28.2141 8.77004 28.2824 8.72623C28.3215 8.70107 28.3823 8.67975 28.3641 8.61818C28.3471 8.56134 28.2851 8.5643 28.238 8.55601C27.9517 8.50539 27.711 8.38816 27.5672 8.12084C27.4646 7.92989 27.4861 7.73747 27.6284 7.59034C27.7942 7.41923 27.9922 7.38015 28.1956 7.48258C28.4694 7.62024 28.6839 7.83605 28.9093 8.03469C28.9985 8.11314 29.0519 8.10574 29.1306 8.03676C29.2738 7.91124 29.323 7.70372 29.238 7.52551ZM25.9295 4.63087C25.858 4.69156 25.7944 4.76113 25.7282 4.82773C25.6993 4.85645 25.6716 4.88753 25.6259 4.86444C25.5785 4.83987 25.5955 4.79813 25.6012 4.75964C25.6569 4.397 25.5162 4.19126 25.1654 4.11873C25.0306 4.0909 24.9056 4.1208 24.7962 4.19392C24.4878 4.40026 24.3422 4.70458 24.3402 5.0619C24.3384 5.40204 24.65 5.72887 25.0038 5.80376C25.0419 5.81176 25.0837 5.8082 25.124 5.84876C25.0852 5.90382 25.0294 5.92573 24.9784 5.91803C24.5233 5.85054 24.1171 5.68801 23.8964 5.25521C23.5919 4.65751 24.0175 3.96568 24.7046 3.94643C25.1845 3.93282 25.5895 4.13057 25.9379 4.45206C26.0133 4.52163 26.0017 4.57018 25.9295 4.63087ZM31.5149 11.1173C31.4636 11.1386 31.4472 11.0732 31.4254 11.0371C31.2995 10.829 31.2867 10.8222 31.0612 10.9133C30.7397 11.0439 30.4188 11.1762 30.0994 11.3121C29.9016 11.3965 29.8939 11.4178 29.9291 11.6235C29.9353 11.6599 29.9622 11.7106 29.9091 11.7266C29.856 11.7422 29.8485 11.6857 29.8363 11.652C29.7313 11.3642 29.6108 11.0836 29.4593 10.8165C29.4402 10.7831 29.411 10.7405 29.459 10.7135C29.5082 10.6857 29.5318 10.7348 29.5473 10.7677C29.6234 10.9278 29.7352 10.9261 29.8781 10.8574C30.2446 10.6815 30.6132 10.5101 30.9837 10.3423C31.0848 10.2967 31.1027 10.2446 31.0502 10.1481C30.9795 10.0181 30.9196 9.88225 30.8158 9.77301C30.6941 9.64483 30.5578 9.6099 30.4131 9.66674C30.2688 9.72328 30.1769 9.86508 30.1784 10.0389C30.1879 10.1274 30.2115 10.2227 30.2497 10.3145C30.2846 10.3985 30.2628 10.4435 30.1665 10.4193C29.8718 10.345 29.5703 10.3168 29.2696 10.2843C29.204 10.2772 29.1608 10.249 29.1301 10.1904C29.0498 10.0377 28.9645 9.88728 28.861 9.74815C28.8437 9.72446 28.8243 9.69516 28.8542 9.6694C28.8762 9.65045 28.9064 9.66082 28.9198 9.68124C29.0042 9.80824 29.1432 9.79462 29.2672 9.81535C29.4775 9.85057 29.6887 9.88107 29.8995 9.91185C30.0508 9.93376 30.0701 9.91245 30.0311 9.77065C30.0006 9.66111 29.9741 9.55128 29.9807 9.43612C29.9962 9.15933 30.2726 9.01812 30.5077 9.17028C30.6434 9.25761 30.7487 9.37662 30.8253 9.51724C31.086 9.99415 31.3055 10.4903 31.5178 10.9897C31.5354 11.0309 31.5808 11.0898 31.5149 11.1173ZM3.88351 12.1511C4.0559 11.4817 4.27302 10.8269 4.53489 10.1872C5.19879 8.56489 6.11501 7.09626 7.28087 5.78334C8.19173 4.75816 9.22248 3.8668 10.3731 3.11398C12.176 1.93398 14.1418 1.16162 16.2668 0.787139C17.4008 0.587315 18.5461 0.515378 19.6931 0.575473C22.9321 0.745398 25.8591 1.78804 28.4313 3.75845C31.2351 5.90619 33.0819 8.69485 34.0029 12.0886C34.0664 12.3225 34.0649 12.3228 33.826 12.326C33.3291 12.3322 33.3318 12.3314 33.1919 11.8553C32.6193 9.90741 31.6732 8.15577 30.3648 6.59892C28.6955 4.61251 26.6453 3.14921 24.2089 2.22587C23.0675 1.79337 21.8894 1.51006 20.6747 1.37181C20.0967 1.30609 19.5175 1.28211 19.0084 1.26583C16.1466 1.28862 13.5546 2.00562 11.1742 3.45679C10.0984 4.11251 9.12376 4.89553 8.25048 5.79992C7.25194 6.83426 6.41744 7.98703 5.75562 9.26235C5.27634 10.1857 4.89577 11.1463 4.62794 12.1505C4.59305 12.2819 4.53071 12.3435 4.38874 12.3308C4.26557 12.3195 4.1409 12.3266 4.01653 12.324C3.85577 12.321 3.84354 12.3065 3.88351 12.1511Z" fill="white"/>
<path d="M27.3029 15.3276C27.0198 15.9028 26.7287 16.4742 26.4552 17.0538C26.0043 18.0085 25.5641 18.9683 25.1209 19.9265C25.0714 20.0334 25.0281 20.1246 24.8784 20.1207C24.7504 20.1175 24.6842 20.074 24.6329 19.9576C23.9535 18.4179 23.2055 16.9105 22.4736 15.3954C22.4524 15.3516 22.4286 15.3093 22.3981 15.2515C22.3585 15.3119 22.3698 15.3661 22.3698 15.4155C22.3728 16.6035 22.3761 17.7915 22.382 18.9795C22.3826 19.0973 22.4035 19.2149 22.4089 19.333C22.4154 19.4757 22.4894 19.5494 22.6293 19.563C22.7477 19.5745 22.8667 19.5825 22.9848 19.5965C23.181 19.6195 23.1151 19.7726 23.1223 19.8842C23.13 20.0017 23.0546 20.0367 22.9493 20.0325C22.731 20.0233 22.5127 20.015 22.2946 20.0062C21.9517 19.9925 21.6099 20.0278 21.2675 20.0319C21.1538 20.0334 21.0304 20.0532 21.019 19.8795C21.0044 19.6539 21.0295 19.6136 21.2421 19.5852C21.3304 19.5734 21.4202 19.5719 21.5091 19.5639C21.6462 19.5515 21.7208 19.4846 21.7378 19.3404C21.7766 19.0118 21.7846 18.6811 21.7882 18.3522C21.7987 17.3863 21.7987 16.4197 21.7879 15.4537C21.7843 15.1245 21.7784 14.7939 21.7357 14.4656C21.719 14.3374 21.6564 14.2711 21.5249 14.2637C21.4062 14.2569 21.2875 14.2456 21.1693 14.2323C21.0336 14.2172 21.0044 14.1506 21.019 13.9354C21.0271 13.8178 21.0888 13.7885 21.1965 13.7924C21.8121 13.8134 22.428 13.8101 23.0435 13.7953C23.1706 13.7924 23.2317 13.8303 23.2792 13.941C23.867 15.3107 24.5482 16.6373 25.1847 17.9845C25.2106 18.0396 25.2193 18.1346 25.2855 18.1331C25.3484 18.132 25.3589 18.0381 25.3869 17.9828C25.9974 16.7758 26.5712 15.5517 27.1305 14.3208C27.1895 14.1905 27.2441 14.0579 27.293 13.9238C27.3279 13.8279 27.3765 13.7903 27.4893 13.7939C28.075 13.8122 28.6611 13.8131 29.2465 13.79C29.3721 13.785 29.4315 13.8276 29.4386 13.9534C29.4503 14.1612 29.4168 14.2207 29.2689 14.2338C29.1553 14.2438 29.0419 14.2569 28.9283 14.264C28.8048 14.2717 28.7339 14.332 28.724 14.4549C28.704 14.7051 28.6721 14.9555 28.6706 15.2059C28.6647 16.3398 28.6653 17.4736 28.67 18.6074C28.6712 18.8481 28.6936 19.0896 28.7189 19.3291C28.738 19.5073 28.7962 19.55 28.9799 19.5668C29.0885 19.5769 29.1979 19.5828 29.3053 19.6003C29.4723 19.6272 29.4341 19.7613 29.4356 19.8697C29.4371 19.9763 29.3828 20.0352 29.2701 20.0319C28.9623 20.023 28.6548 20.0133 28.347 20.0062C27.8305 19.994 27.3145 20.0183 26.7982 20.0325C26.6798 20.0358 26.5796 20.0304 26.5715 19.8727C26.5614 19.6687 26.5894 19.6151 26.7594 19.5911C26.8525 19.5778 26.9473 19.5754 27.041 19.5668C27.2146 19.5509 27.2793 19.4922 27.2981 19.32C27.3148 19.1684 27.3327 19.0156 27.333 18.8635C27.3369 17.7199 27.3366 16.5763 27.3372 15.4324C27.3372 15.399 27.3339 15.3652 27.3321 15.3318C27.3219 15.3303 27.3118 15.3288 27.3017 15.3276H27.3029Z" fill="white"/>
<path d="M9.24582 16.0068C9.05941 15.3774 8.55418 15.0538 7.94784 14.8777C7.42441 14.7258 6.88458 14.6891 6.34176 14.6877C6.27585 14.6874 6.18757 14.7176 6.15387 14.6385C6.11599 14.5497 6.16073 14.4633 6.2168 14.3922C6.26034 14.3368 6.32476 14.3058 6.39545 14.2927C6.50729 14.2717 6.62003 14.254 6.73187 14.2312C6.85356 14.2066 6.89144 14.1166 6.86967 13.9334C6.85535 13.8152 6.79302 13.7824 6.6767 13.7865C5.84786 13.8161 5.01873 13.8152 4.18989 13.7868C4.0858 13.7833 4.01571 13.799 4.00348 13.9188C3.98082 14.1376 4.01303 14.2104 4.15112 14.2335C4.26326 14.2522 4.3763 14.2699 4.48725 14.2954C4.6149 14.3247 4.68946 14.4064 4.72048 14.5355C4.74583 14.6421 4.72585 14.6942 4.60327 14.69C4.43953 14.6847 4.27519 14.6844 4.11175 14.6915C3.58922 14.7146 3.07145 14.767 2.5859 14.9819C2.24679 15.1323 1.95719 15.3466 1.77109 15.6699C1.40752 16.3019 1.41438 16.963 1.67833 17.6208C1.98254 18.3786 2.60231 18.7499 3.37656 18.9068C3.77174 18.987 4.17289 19.0157 4.57523 19.0231C4.69483 19.0255 4.74642 19.0524 4.72585 19.1853C4.69006 19.4159 4.62742 19.4926 4.39538 19.5373C4.32231 19.5512 4.24805 19.5598 4.17498 19.5737C4.01631 19.6039 3.98708 19.6676 4.00169 19.8896C4.01124 20.0344 4.10429 20.0335 4.20987 20.0329C4.61698 20.0314 5.0241 20.0323 5.43121 20.0323C5.43121 20.0326 5.43091 20.0329 5.43091 20.0329C5.84816 20.0329 6.26511 20.0332 6.68207 20.0329C6.75215 20.0329 6.82195 20.0367 6.85714 19.9541C6.93677 19.7667 6.85535 19.6116 6.65493 19.5752C6.5914 19.5637 6.52757 19.5542 6.46434 19.5423C6.23857 19.4994 6.17623 19.4269 6.13657 19.206C6.11241 19.0705 6.14581 19.0213 6.29166 19.0225C6.6594 19.0255 7.02714 19.0071 7.38892 18.9396C7.94187 18.8363 8.45606 18.635 8.83901 18.2123C9.42388 17.5666 9.47995 16.7975 9.24582 16.0068ZM4.77744 16.8425H4.77893C4.77893 17.3543 4.77983 17.8665 4.77893 18.3783C4.77834 18.5568 4.76402 18.5669 4.5797 18.566C4.3754 18.5651 4.17498 18.5361 3.97694 18.4879C3.51674 18.376 3.20298 18.0968 3.04789 17.6554C2.86089 17.1246 2.85999 16.582 3.00405 16.0423C3.15198 15.4881 3.54716 15.2199 4.1025 15.1554C4.26982 15.1359 4.43714 15.1219 4.60625 15.119C4.73688 15.1163 4.78072 15.1655 4.77953 15.2919C4.77535 15.8087 4.77774 16.3256 4.77774 16.8425H4.77744ZM7.78529 17.7288C7.57383 18.2519 7.1539 18.5062 6.60124 18.5595C6.48313 18.5711 6.36324 18.5654 6.24453 18.5725C6.12255 18.5796 6.07781 18.5266 6.07871 18.4062C6.08258 17.894 6.0805 17.3819 6.0805 16.8697C6.0802 16.3872 6.0793 15.9047 6.08079 15.4218C6.08169 15.1299 6.09183 15.1202 6.37815 15.1234C6.56664 15.1258 6.75484 15.1427 6.93946 15.1791C7.37222 15.2643 7.6824 15.505 7.82466 15.9236C8.03045 16.5278 8.02508 17.1359 7.78529 17.7288Z" fill="white"/>
<path d="M17.5558 16.7858C17.5558 17.4267 17.5525 18.0674 17.5576 18.7083C17.5594 18.9146 17.5749 19.1218 17.5994 19.327C17.6208 19.5061 17.6793 19.5517 17.8618 19.5656C17.9904 19.5757 18.1198 19.5709 18.2475 19.5949C18.4002 19.6236 18.427 19.6728 18.4148 19.8782C18.4067 20.0147 18.3241 20.0369 18.2126 20.0336C17.88 20.0239 17.5475 20.0076 17.2149 20.0085C16.7085 20.0099 16.2024 20.0241 15.6959 20.0321C15.4785 20.0357 15.3816 19.8838 15.4702 19.6819C15.4949 19.6257 15.5391 19.6023 15.5987 19.5976C15.7123 19.5884 15.826 19.5777 15.9396 19.5668C16.0729 19.5537 16.166 19.4969 16.1764 19.3507C16.191 19.1443 16.2185 18.9383 16.2191 18.732C16.2232 17.5046 16.2235 16.2772 16.2191 15.0499C16.2185 14.8488 16.1907 14.6475 16.1699 14.4471C16.1579 14.334 16.0896 14.2728 15.9718 14.2654C15.8582 14.258 15.7446 14.2452 15.6312 14.2346C15.4827 14.221 15.4433 14.1541 15.4559 13.9554C15.4636 13.8287 15.5259 13.7932 15.6503 13.795C16.6283 13.8077 17.6065 13.8139 18.5845 13.7876C18.9412 13.7781 19.2976 13.7976 19.6439 13.9092C20.1136 14.0608 20.4047 14.3722 20.4799 14.8533C20.5577 15.353 20.5094 15.8415 20.1965 16.2654C19.8377 16.7512 19.345 17.0218 18.7467 17.1058C18.5037 17.1402 18.2615 17.1292 18.0217 17.078C17.9248 17.0573 17.7437 16.8012 17.7724 16.7148C17.8022 16.6245 17.8681 16.5851 17.9704 16.6147C18.1258 16.66 18.2856 16.6597 18.4419 16.6251C18.7661 16.5528 18.9773 16.3462 19.0745 16.0386C19.195 15.6576 19.192 15.2704 19.0641 14.8903C18.9648 14.5949 18.7476 14.4211 18.4452 14.35C18.2141 14.2956 17.9814 14.3178 17.7485 14.3355C17.6289 14.3447 17.5818 14.4009 17.5743 14.5244C17.5347 15.1647 17.5651 15.8056 17.5546 16.446C17.5528 16.5593 17.5546 16.6727 17.5546 16.7861H17.5561L17.5558 16.7858Z" fill="white"/>
<path d="M12.3113 13.7941C13.0113 13.7915 13.7113 13.8172 14.411 13.7841C14.6478 13.7728 14.6785 13.8178 14.6514 14.0496C14.6129 14.3821 14.5756 14.7148 14.547 15.0481C14.533 15.2124 14.4286 15.2151 14.3063 15.213C14.176 15.2107 14.1336 15.1381 14.1345 15.0224C14.1354 14.8844 14.128 14.7471 14.108 14.61C14.0937 14.5114 14.0451 14.4572 13.9493 14.4436C13.802 14.4229 13.655 14.3969 13.507 14.388C13.1008 14.3637 12.6943 14.3587 12.2875 14.3818C12.1741 14.3883 12.1345 14.4297 12.1249 14.5407C12.0715 15.1458 12.1049 15.7521 12.0936 16.3578C12.0912 16.4795 12.1488 16.5239 12.266 16.523C12.6334 16.52 13.0009 16.5259 13.3683 16.52C13.6215 16.5159 13.666 16.4664 13.6895 16.2151C13.6961 16.1464 13.714 16.078 13.7128 16.0097C13.7101 15.8554 13.7978 15.8166 13.932 15.8196C14.099 15.8232 14.133 15.8578 14.1307 16.0194C14.122 16.5615 14.1143 17.1035 14.1354 17.6453C14.1408 17.7805 14.0832 17.8326 13.9538 17.8362C13.7584 17.8418 13.7012 17.8075 13.6907 17.6604C13.683 17.5526 13.6809 17.4442 13.6728 17.3362C13.6627 17.1991 13.5861 17.1245 13.4495 17.1006C13.224 17.0609 12.997 17.0446 12.7686 17.0464C12.5997 17.0476 12.4309 17.0479 12.2621 17.0517C12.1506 17.0541 12.0921 17.1029 12.093 17.2255C12.0978 17.9155 12.099 18.6053 12.0981 19.2954C12.0981 19.4102 12.1467 19.4514 12.26 19.4511C12.8458 19.4502 13.4313 19.4484 14.0149 19.3907C14.2881 19.3637 14.318 19.3359 14.3737 19.0683C14.4056 18.9141 14.4337 18.7589 14.4668 18.6047C14.4981 18.4588 14.5974 18.4114 14.7802 18.449C14.9112 18.4759 14.9022 18.5698 14.8894 18.6675C14.8399 19.0437 14.8128 19.4218 14.8113 19.8016C14.8104 20.0118 14.7895 20.0343 14.5822 20.0331C13.7134 20.0275 12.8446 20.0399 11.9758 20.0082C11.5043 19.9908 11.0327 20.0186 10.5612 20.0304C10.4753 20.0325 10.37 20.058 10.3351 19.9419C10.3008 19.8279 10.3635 19.7474 10.4619 19.7036C10.6912 19.6012 10.7357 19.42 10.7434 19.1873C10.7861 17.8815 10.7628 16.5757 10.7643 15.2699C10.7646 14.9999 10.7303 14.7296 10.7106 14.4596C10.7017 14.3376 10.6352 14.2734 10.5105 14.2648C10.387 14.2562 10.2633 14.2468 10.1404 14.2311C10.0115 14.2145 9.98171 14.1449 9.99513 13.9424C10.0026 13.8297 10.056 13.7921 10.1675 13.7924C10.8824 13.7956 11.5973 13.7941 12.3122 13.7941H12.3113Z" fill="white"/>
<path d="M36.5388 19.8433C36.5352 19.738 36.5632 19.5964 36.3971 19.6053C36.069 19.6228 35.9265 19.4354 35.8122 19.1657C35.1018 17.4899 34.3848 15.8167 33.6648 14.1449C33.4602 13.6701 33.5927 13.7648 33.0573 13.7462C32.8912 13.7406 32.8145 13.7989 32.7543 13.9534C32.0734 15.7048 31.3749 17.449 30.6483 19.1826C30.5347 19.4544 30.362 19.5923 30.0694 19.603C29.9284 19.6083 29.8985 19.6713 29.9027 19.8578C29.9057 19.9825 29.9633 20.0381 30.087 20.0331C30.6627 20.0085 31.2383 20.0109 31.8136 20.0337C31.9594 20.0393 32.0051 19.9665 32.0036 19.8342C32.0021 19.653 31.9711 19.6115 31.813 19.6003C31.7092 19.5929 31.6054 19.5849 31.5025 19.5707C31.3245 19.5464 31.28 19.4837 31.3152 19.312C31.3874 18.9576 31.5374 18.6281 31.6481 18.2859C31.6851 18.171 31.7516 18.1364 31.8679 18.1385C32.1804 18.1447 32.4936 18.1405 32.8065 18.1408C33.1292 18.1408 33.4519 18.1435 33.7749 18.1394C33.8799 18.1379 33.9374 18.1749 33.9735 18.2746C34.0725 18.5482 34.1814 18.8182 34.284 19.0905C34.3171 19.1782 34.3484 19.267 34.3693 19.3578C34.397 19.4774 34.3589 19.5633 34.2214 19.5772C34.1325 19.5858 34.0436 19.5959 33.9547 19.5991C33.7525 19.6068 33.7152 19.642 33.7185 19.8333C33.7215 20.0053 33.7531 20.0352 33.9512 20.0325C34.6461 20.0233 35.3407 19.986 36.0356 20.0301C36.1543 20.0375 36.2739 20.0304 36.3932 20.0325C36.5295 20.0349 36.5423 19.9455 36.5388 19.8433ZM33.5327 17.5896C33.046 17.5852 32.5592 17.5873 32.0728 17.5884C31.9827 17.5887 31.926 17.5819 31.9726 17.4656C32.2326 16.8155 32.4876 16.1633 32.745 15.512C32.7519 15.4946 32.7641 15.4792 32.7942 15.4289C32.9249 15.745 33.0433 16.031 33.1611 16.317C33.3153 16.6909 33.4674 17.0656 33.6246 17.4383C33.6675 17.5405 33.6675 17.5908 33.5327 17.5896Z" fill="white"/>
<path d="M27.3139 10.1363C27.2053 10.0673 27.0839 10.0176 26.9801 9.94296C26.2867 9.44236 25.5226 9.03857 24.8971 8.44413C24.7334 8.28871 24.5381 8.19931 24.3006 8.23957C24.1026 8.27302 23.9508 8.21144 23.8574 8.02553C23.8285 7.9681 23.7805 7.9231 23.7271 7.88551C23.6454 7.82778 23.575 7.78663 23.4575 7.83163C23.2765 7.9009 23.0692 7.81239 22.9502 7.65845C22.8085 7.47491 22.6656 7.29196 22.5195 7.11167C22.4449 7.0196 22.3668 6.92931 22.2636 6.86596C22.2344 6.8482 22.2004 6.81859 22.1691 6.84287C22.127 6.87573 22.1595 6.91451 22.1795 6.94737C22.2749 7.10308 22.3737 7.25702 22.4664 7.41422C22.6641 7.74992 22.8747 8.07971 23.0104 8.44768C23.0355 8.51488 23.0778 8.59333 23.0107 8.6552C22.946 8.7147 22.8684 8.67148 22.7993 8.64928C22.7193 8.62352 22.6445 8.58918 22.555 8.59895C22.3865 8.61701 22.3268 8.55336 22.3567 8.38758C22.374 8.28989 22.3904 8.19486 22.3787 8.0948C22.3537 7.87929 22.2714 7.67414 22.3119 7.44589C22.3447 7.26087 22.226 7.18538 22.0357 7.23216C22.0166 7.23689 21.9973 7.24281 21.9779 7.24548C21.8335 7.26383 21.7223 7.19604 21.6459 7.08887C21.5681 6.98023 21.6501 6.89793 21.7256 6.82037C21.7667 6.77833 21.7915 6.72061 21.8329 6.67886C21.9892 6.52167 22.144 6.36181 22.385 6.33487C22.5058 6.32125 22.5404 6.23451 22.4694 6.13564C22.4434 6.09982 22.4077 6.07021 22.3856 6.03232C22.3361 5.94736 22.2934 5.94795 22.2111 6.00686C21.9588 6.18744 21.6898 6.34494 21.5066 6.60782C21.464 6.6688 21.3814 6.70225 21.3173 6.74843C21.2651 6.78603 21.2087 6.81919 21.1613 6.86181C21.0444 6.96691 21.0485 7.03411 21.1475 7.15755C21.2203 7.24844 21.3146 7.36271 21.2415 7.47402C21.1478 7.617 21.1866 7.71203 21.2761 7.82808C21.3548 7.93021 21.3131 8.01191 21.1881 8.03116C21.1392 8.03885 21.09 8.04892 21.0408 8.05188C20.8278 8.06579 20.6149 8.07911 20.4016 8.08859C20.3435 8.09125 20.2626 8.09688 20.2418 8.03915C20.2221 7.98468 20.2561 7.91363 20.2978 7.86508C20.3682 7.78278 20.4493 7.70907 20.5212 7.62736C20.6012 7.53618 20.5812 7.46662 20.4652 7.42961C20.3682 7.39882 20.2683 7.41126 20.1696 7.42251C19.965 7.44589 19.7747 7.51872 19.5859 7.59391C19.2465 7.7292 18.8916 7.75051 18.5322 7.74193C18.3929 7.73838 18.2745 7.68746 18.1662 7.59865C17.8555 7.34435 17.4331 7.38165 17.1689 7.68716C17.0624 7.81031 16.9706 7.9459 16.8653 8.07023C16.6917 8.2745 16.3055 8.35709 16.1373 8.21026C16.0284 8.11494 15.9395 8.12559 15.8286 8.17829C15.791 8.19605 15.7412 8.24726 15.7093 8.20789C15.6657 8.15431 15.7409 8.12707 15.7689 8.09362C15.9938 7.82541 16.2443 7.57497 16.3911 7.25051C16.5763 6.84139 16.7591 6.78988 17.0931 7.08295C17.2628 7.23216 17.4576 7.29255 17.6688 7.33577C17.9095 7.38521 18.0765 7.26946 18.2328 7.11137C18.3198 7.02345 18.3592 7.06963 18.3652 7.17324C18.3714 7.28041 18.4245 7.36744 18.5346 7.36034C18.769 7.34554 18.9948 7.43405 19.2295 7.40238C19.5295 7.36212 19.8314 7.34524 20.1344 7.35501C20.381 7.363 20.6029 7.28959 20.8043 7.14838C20.931 7.05927 20.9385 6.97934 20.8216 6.88283C20.795 6.86093 20.7682 6.83872 20.7404 6.818C20.5075 6.64541 20.5153 6.65429 20.2946 6.84405C20.0076 7.09095 19.7186 7.16318 19.3369 6.86093C19.2781 6.81445 19.2226 6.78899 19.1469 6.81001C18.9638 6.86033 18.78 6.90711 18.6127 6.76412C18.5993 6.75287 18.5701 6.74458 18.5567 6.75139C18.3768 6.84257 18.1895 6.6241 18.0103 6.76383C18.0028 6.76945 17.9736 6.75347 17.9581 6.74222C17.8376 6.65429 17.6339 6.691 17.5832 6.49384C17.5754 6.46453 17.5047 6.4521 17.5331 6.40355C17.5599 6.35767 17.6008 6.30023 17.655 6.30527C17.7833 6.3174 17.8951 6.23037 18.0356 6.27685C18.1394 6.31148 18.2766 6.24872 18.3348 6.4C18.3398 6.41273 18.3738 6.42753 18.3855 6.4222C18.5301 6.35619 18.627 6.45921 18.7368 6.51575C18.8215 6.55956 18.914 6.54624 18.9778 6.49591C19.0938 6.40385 19.1651 6.45447 19.2593 6.52996C19.5036 6.72534 19.7828 6.7434 20.0202 6.59686C20.0515 6.57732 20.0822 6.56045 20.0798 6.52078C20.0771 6.47608 20.0381 6.47342 20.0044 6.46394C19.8135 6.41036 19.619 6.36595 19.4329 6.29905C19.1564 6.19958 18.8767 6.11699 18.5835 6.08857C18.4329 6.07406 18.2909 6.02907 18.1549 5.97045C18.0082 5.9071 17.842 5.86832 17.7773 5.68389C17.7463 5.59508 17.6679 5.54149 17.5659 5.6235C17.0875 6.00805 16.6061 6.38697 16.2434 6.89231C16.0863 7.11167 15.8942 7.30232 15.6099 7.36271C15.5834 7.36833 15.5643 7.39794 15.5727 7.41925C15.6144 7.52375 15.5342 7.59391 15.5079 7.67976C15.4173 7.97787 15.1676 8.14572 14.9574 8.3417C14.8581 8.43465 14.7212 8.36035 14.7212 8.22536C14.7209 8.01517 14.6931 7.80291 14.7742 7.59717C14.8261 7.46543 14.8205 7.32422 14.7757 7.19012C14.6985 6.95773 14.5377 6.76027 14.4873 6.51545C14.479 6.47578 14.4495 6.46809 14.4062 6.48289C14.1998 6.55305 14.0847 6.75139 14.1193 6.97105C14.1664 7.27064 14.2273 7.5726 14.0504 7.8565C14.0331 7.88403 14.0382 7.9311 13.9887 7.92162C13.9553 7.91511 13.9472 7.88136 13.9469 7.85117C13.9457 7.71795 13.9159 7.58799 13.915 7.45389C13.9138 7.23275 13.9302 7.01013 13.8902 6.79047C13.878 6.72386 13.8541 6.66317 13.776 6.7283C13.5666 6.90296 13.4596 7.11374 13.4992 7.39942C13.5359 7.662 13.538 7.92932 13.4187 8.18036C13.3951 8.2298 13.3793 8.2822 13.3072 8.28516C13.328 8.13477 13.3951 7.98971 13.368 7.83933C13.3355 7.65756 13.3689 7.47668 13.3635 7.2958C13.3608 7.20492 13.2785 7.14956 13.3024 7.06164C13.3459 6.90208 13.2493 6.94115 13.1637 6.96691C13.0984 6.98645 13.0516 7.03144 13.0164 7.08591C12.9448 7.19811 12.8714 7.31001 12.8088 7.42695C12.504 7.99622 12.0626 8.43525 11.5317 8.80026C11.3721 8.91009 11.127 8.98143 11.1669 9.26267C11.1714 9.29286 11.1341 9.33312 11.1091 9.36273C11.033 9.45361 10.9572 9.54508 10.8746 9.62975C10.6691 9.84023 10.5072 10.0821 10.3545 10.3305C10.3312 10.3684 10.2996 10.4116 10.327 10.453C10.3512 10.4897 10.3992 10.4746 10.4383 10.4675C11.1219 10.347 11.8085 10.2384 12.4891 10.1019C13.1983 9.95983 13.8965 9.76237 14.6323 9.78695C14.8423 9.79405 15.0647 9.78813 15.2631 9.70258C15.6454 9.53798 16.0224 9.36065 16.3994 9.18392C16.6389 9.07143 16.6419 9.07024 16.6404 9.32513C16.6404 9.3497 16.6389 9.37427 16.6407 9.39884C16.644 9.4545 16.6464 9.51252 16.7263 9.50897C16.7958 9.50601 16.8205 9.46131 16.8217 9.40032C16.8241 9.27214 16.8322 9.14366 16.8238 9.01607C16.8152 8.88048 16.8727 8.8118 16.9986 8.76503C17.4779 8.5877 17.9542 8.40327 18.4299 8.21796C18.5065 8.18806 18.5713 8.19368 18.6434 8.22624C19.56 8.63981 20.5293 8.93436 21.4109 9.42756C21.4664 9.45864 21.5284 9.49565 21.6346 9.46367C21.3328 9.23958 21.0059 9.11139 20.6847 8.91305C20.9916 8.91305 21.2677 8.91275 21.5442 8.91394C21.5678 8.91394 21.6012 8.91808 21.6137 8.93347C21.7396 9.09008 21.9364 9.13981 22.0948 9.24757C22.4989 9.52259 22.9356 9.71264 23.4459 9.64307C23.5106 9.63419 23.5729 9.62235 23.5658 9.54449C23.5529 9.40772 23.6373 9.35414 23.7429 9.305C23.8551 9.2529 23.966 9.19606 24.0707 9.13093C24.1852 9.05988 24.2828 9.06018 24.3991 9.13656C24.7385 9.36006 25.0588 9.60844 25.3854 9.84882C25.4567 9.90122 25.5345 9.98736 25.6195 9.90684C25.7469 9.78635 25.8712 9.77688 26.0198 9.85207C26.0579 9.87132 26.1113 9.88641 26.1498 9.87516C26.3395 9.8204 26.4248 9.94562 26.5011 10.0735C26.6717 10.3592 26.9479 10.3873 27.2393 10.3861C27.3148 10.3858 27.3574 10.3411 27.3854 10.279C27.4191 10.2047 27.361 10.1662 27.3139 10.1363ZM20.4684 8.75112C19.9355 8.58297 19.4177 8.36745 18.8937 8.17177C18.8946 8.1623 18.8955 8.15253 18.8967 8.14306C19.2083 8.14306 19.5203 8.14247 19.832 8.14424C19.8657 8.14424 19.9006 8.15579 19.9325 8.16852C20.421 8.36005 20.9092 8.55277 21.3963 8.76177C21.0852 8.76592 20.7646 8.84437 20.4684 8.75112ZM22.0912 8.02612C21.8681 8.18214 21.8299 8.18214 21.6095 8.00925C21.5559 7.96721 21.4828 7.99415 21.3942 7.91422C21.6447 7.90238 21.8547 7.88995 22.0647 7.88491C22.1067 7.88403 22.1598 7.91037 22.1705 7.95389C22.1834 8.00511 22.1207 8.0057 22.0912 8.02612ZM25.6544 9.71146C25.6222 9.7683 25.561 9.77806 25.4999 9.73721C25.4018 9.6709 25.3007 9.60903 25.2046 9.54005C25.0573 9.43437 24.9132 9.32424 24.7677 9.21589C24.986 9.23069 25.148 9.35355 25.3198 9.45687C25.4086 9.51015 25.4978 9.56314 25.5837 9.62087C25.6162 9.64248 25.686 9.6561 25.6544 9.71146Z" fill="white"/>
<path d="M27.5004 10.115C27.3847 10.1408 27.3251 10.0724 27.2627 10.0259C26.6779 9.58748 26.1279 9.10554 25.5567 8.65053C25.0408 8.23963 24.5302 7.8166 23.999 7.42553C23.5963 7.12891 23.2372 6.78284 22.8316 6.49332C22.7803 6.45661 22.7347 6.40628 22.661 6.41516C22.6163 6.42049 22.5808 6.40776 22.5784 6.35536C22.5766 6.3151 22.5826 6.27159 22.6154 6.24761C22.6589 6.21593 22.687 6.26122 22.7168 6.28313C23.239 6.66561 23.7144 7.1073 24.245 7.47971C24.6578 7.76982 25.0381 8.10405 25.4711 8.36722C25.5126 8.39239 25.5588 8.42406 25.5809 8.46462C25.6555 8.6008 25.7751 8.6899 25.9003 8.76687C26.271 8.99423 26.563 9.31158 26.8857 9.594C27.0268 9.71744 27.1974 9.80389 27.3346 9.93385C27.3913 9.98743 27.4488 10.0378 27.5004 10.1159V10.115Z" fill="white"/>
<path d="M18.3373 9.27581C18.3373 9.25124 18.3373 9.22697 18.3373 9.20239C18.3385 8.98392 18.3423 8.98007 18.5589 8.98007C18.7674 8.98007 18.7745 8.98718 18.776 9.19322C18.776 9.23229 18.776 9.27167 18.776 9.31074C18.7754 9.56385 18.7751 9.55616 18.5279 9.56622C18.3814 9.57214 18.3128 9.53099 18.3367 9.37854C18.342 9.34508 18.3376 9.31015 18.3376 9.27581H18.3373Z" fill="white"/>
<path d="M19.0605 23.8139C17.9517 24.1274 17.3265 24.9193 16.9328 25.9824C16.8565 25.7867 16.8672 25.6189 16.8508 25.4572C16.7706 24.6704 17.1413 24.0507 17.6045 23.4643C18.2335 22.6677 19.0886 22.3169 20.0731 22.1996C20.7922 22.1138 21.4391 22.3083 22.0171 22.7041C22.4573 23.0054 22.9059 23.0578 23.4028 22.9279C23.5656 22.8853 23.7329 22.8592 23.8982 22.8252C24.016 22.8009 24.0488 22.8409 24.0169 22.9578C23.8248 23.6621 23.4567 24.2583 22.9098 24.7452C22.4773 25.1301 21.9825 25.4069 21.4179 25.5451C21.0642 25.6316 20.7006 25.6171 20.3374 25.6097C19.8497 25.5996 19.3767 25.4593 18.887 25.4729C18.5902 25.4812 18.3072 25.5419 18.0301 25.6425C17.8863 25.6949 17.8705 25.6769 17.8792 25.5218C17.9239 24.7387 18.3328 24.1988 19.014 23.8391C19.0295 23.8308 19.045 23.8225 19.0605 23.8142V23.8139Z" fill="white"/>
<path d="M16.78 24.3881C16.9011 24.651 16.8152 24.9112 16.7877 25.1738C16.7648 25.3941 16.7785 25.6164 16.8107 25.8366C16.8158 25.8719 16.8378 25.9195 16.7922 25.9444C16.7555 25.9642 16.7272 25.929 16.7003 25.9109C16.1963 25.5726 15.8235 25.1244 15.6186 24.5566C15.4948 24.2138 15.5276 23.8556 15.6341 23.5095C15.788 23.0098 15.9231 22.5062 15.9974 21.9879C16.0039 21.9423 15.9974 21.8701 16.0463 21.8579C16.1122 21.8419 16.1256 21.9204 16.1528 21.9624C16.3293 22.2351 16.5473 22.4686 16.8143 22.6551C17.0738 22.8363 17.2751 23.0714 17.4606 23.3233C17.5325 23.4207 17.5387 23.5003 17.4549 23.598C17.2539 23.8316 17.1009 24.0962 16.9735 24.376C16.9527 24.4222 16.9533 24.4983 16.8862 24.498C16.8313 24.498 16.8301 24.4246 16.7797 24.3887L16.78 24.3881Z" fill="white"/>
<path d="M22.5522 4.74364C22.5128 4.73949 22.4732 4.7386 22.4347 4.73061C22.2188 4.6865 22.1997 4.65512 22.2605 4.44227C22.3035 4.29129 22.3539 4.14209 22.3918 3.98993C22.4204 3.87477 22.4824 3.85168 22.5868 3.89105C22.7553 3.955 22.9313 4.01687 22.9745 4.21669C23.0133 4.3955 22.937 4.54233 22.7992 4.65927C22.7276 4.71995 22.6456 4.746 22.5522 4.74364Z" fill="white"/>
<path d="M22.8114 3.8518C22.7965 3.85121 22.7818 3.85091 22.7669 3.84943C22.4711 3.82042 22.446 3.78401 22.5304 3.50633C22.5391 3.4782 22.5421 3.44682 22.5573 3.42255C22.6163 3.32752 22.5498 3.12444 22.7798 3.17506C23.0634 3.23753 23.2063 3.37045 23.1812 3.56198C23.1585 3.73605 23.0058 3.85595 22.8114 3.8521V3.8518Z" fill="white"/>
<path d="M9.95348 8.21061C9.95557 8.61381 9.60811 8.90274 9.22545 8.82458C8.89499 8.75709 8.63224 8.57295 8.42913 8.31422C8.22274 8.05104 8.24332 7.74405 8.45836 7.50278C8.69218 7.2405 8.98387 7.18721 9.28809 7.35625C9.51714 7.48384 9.70355 7.65939 9.84701 7.87756C9.9156 7.98207 9.96273 8.09604 9.95318 8.21061H9.95348Z" fill="white"/>
<path d="M19.2503 3.44327C19.2566 3.30088 19.2643 3.15937 19.3174 3.0232C19.4352 2.72124 19.6837 2.55161 19.9777 2.57766C20.324 2.60815 20.562 2.80531 20.6082 3.13806C20.6574 3.49419 20.5969 3.83434 20.3646 4.12711C20.1254 4.42848 19.5882 4.38585 19.3979 4.05163C19.2891 3.86009 19.2503 3.70112 19.25 3.44327H19.2503Z" fill="white"/>
<path d="M28.5826 25.8284C28.5946 26.0294 28.4946 26.115 28.3992 26.2008C28.1633 26.4128 28.1615 26.4131 27.9548 26.1857C27.8421 26.0617 27.7353 25.9326 27.6226 25.8083C27.5683 25.7485 27.5656 25.7008 27.6324 25.6487C27.6947 25.6005 27.749 25.5418 27.8122 25.4951C27.9429 25.3986 28.0834 25.3127 28.248 25.4083C28.4299 25.514 28.5555 25.6668 28.5826 25.8284Z" fill="white"/>
<path d="M27.4005 24.7562C27.5839 24.7926 27.7008 24.9258 27.779 25.0999C27.8449 25.2467 27.7766 25.3625 27.6689 25.4528C27.4381 25.647 27.5159 25.6745 27.2919 25.4335C27.1977 25.3323 27.11 25.2251 27.0214 25.1189C26.9976 25.0901 26.9639 25.0632 26.9815 25.0155C27.0089 24.9412 27.2955 24.7541 27.4002 24.7559L27.4005 24.7562Z" fill="white"/>
<path d="M30.1562 24.2434C30.1571 24.6357 29.761 24.9338 29.4195 24.8014C29.0127 24.6439 28.6831 24.3745 28.4487 24.0057C28.3288 23.8171 28.3745 23.6303 28.5015 23.4545C28.6381 23.2653 28.8197 23.1427 29.0485 23.2153C29.5251 23.3663 29.8851 23.6732 30.1234 24.1131C30.1481 24.159 30.1502 24.2171 30.1565 24.2434H30.1562Z" fill="white"/>
<path d="M14.56 4.65306C14.5592 4.89581 14.2955 5.14004 14.0769 5.10895C13.9424 5.08971 13.852 5.01185 13.8028 4.88781C13.7476 4.74927 13.8055 4.63233 13.8967 4.5376C14.0131 4.41712 14.1452 4.31202 14.286 4.21877C14.3525 4.17466 14.3987 4.16726 14.4309 4.25696C14.4792 4.39106 14.5439 4.51954 14.5597 4.65306H14.56Z" fill="white"/>
<path d="M28.4059 8.49988C28.2129 8.48864 28.0781 8.39775 27.9946 8.23849C27.9349 8.12481 27.9469 8.0061 28.0268 7.90485C28.1019 7.81012 28.2084 7.7592 28.3292 7.78407C28.5663 7.83262 28.7387 7.99662 28.9224 8.13754C28.9427 8.15323 28.954 8.18017 28.9278 8.2003C28.7658 8.32463 28.6316 8.49811 28.4062 8.49988H28.4059Z" fill="white"/>
<path d="M9.974 26.5682C9.84485 26.5676 9.77685 26.4714 9.80847 26.3521C9.86036 26.1552 9.99935 26.0096 10.1175 25.8536C10.2931 25.6221 10.4953 25.4122 10.7026 25.2079C10.7512 25.1602 10.8106 25.1212 10.8705 25.0871C10.9353 25.0504 11.0077 25.0196 11.0781 25.0762C11.1545 25.1375 11.1575 25.2186 11.1282 25.3038C11.0945 25.4024 11.0402 25.4909 10.9809 25.5753C10.7593 25.8909 10.5037 26.1771 10.2168 26.4356C10.1428 26.5022 10.0596 26.5546 9.974 26.5679V26.5682Z" fill="white"/>
<path d="M8.76417 25.4327C8.65024 25.431 8.58671 25.3392 8.61683 25.2249C8.64278 25.1266 8.70511 25.0482 8.77162 24.9757C9.03945 24.6844 9.32518 24.4117 9.64072 24.171C9.70783 24.1198 9.78209 24.0799 9.86262 24.0529C9.9342 24.0289 9.99892 24.0349 10.0538 24.0926C10.1054 24.1468 10.0982 24.2057 10.0777 24.2711C10.0407 24.3886 9.95776 24.4739 9.87902 24.5618C9.61478 24.8572 9.32339 25.1231 8.99322 25.3457C8.92194 25.394 8.8435 25.4215 8.76417 25.4327Z" fill="white"/>
<path d="M17.5149 29.0106C17.3756 28.9958 17.2086 28.9777 17.041 28.9606C16.944 28.9505 16.9103 28.9162 16.9608 28.817C17.0795 28.5846 17.1889 28.3475 17.3037 28.1133C17.3204 28.0793 17.3342 28.0263 17.3789 28.0322C17.4198 28.0378 17.4263 28.0893 17.4368 28.1275C17.5051 28.3842 17.5728 28.6408 17.6423 28.8972C17.6664 28.9866 17.6437 29.0322 17.5149 29.0103V29.0106Z" fill="white"/>
<path d="M12.2162 26.0137C12.2171 26.1875 11.9311 26.5842 11.7724 26.6404C11.6447 26.6857 11.5165 26.5827 11.5591 26.4536C11.6343 26.2263 11.77 26.033 11.9603 25.8823C12.0086 25.8441 12.0674 25.8275 12.1255 25.8666C12.181 25.9042 12.223 25.951 12.2162 26.0137Z" fill="white"/>
<path d="M12.258 28.2507C12.2604 28.1536 12.2941 28.0882 12.3314 28.024C12.4158 27.878 12.5118 27.7415 12.6451 27.6347C12.7087 27.5838 12.7805 27.5672 12.8509 27.6151C12.9189 27.6616 12.9419 27.7312 12.9151 27.8102C12.842 28.0254 12.7036 28.1977 12.5384 28.3487C12.4865 28.3964 12.4161 28.4156 12.3457 28.3736C12.2917 28.3413 12.2547 28.2978 12.258 28.2504V28.2507Z" fill="white"/>
</g>
<defs>
<clipPath id="clip0_3023_106">
<rect width="38" height="32" fill="white"/>
</clipPath>
</defs>
</svg>
