<svg width="34" height="29" viewBox="0 0 34 29" fill="none" xmlns="http://www.w3.org/2000/svg">
<path d="M20.2097 28.8826C18.6656 28.7594 16.6956 29.2074 14.822 28.5395C14.0101 28.2497 13.3196 28.2347 12.5076 28.5512C9.50763 29.7204 7.17488 28.4679 5.10336 26.3777C2.38958 23.638 1.26313 20.1971 0.960309 16.4848C0.572626 11.7331 1.54433 7.15306 3.10338 2.68124C3.25146 2.25488 3.48441 1.9401 3.93698 1.81353C6.704 1.03408 9.47935 0.379545 12.3895 0.942478C13.5009 1.15733 14.5675 1.48543 15.5475 2.04836C16.03 2.32649 16.3927 2.27653 16.8453 1.94843C18.6257 0.659346 20.2712 0.661012 22.0549 1.93511C24.0399 3.35243 26.2029 3.84875 28.5889 3.29081C29.0632 3.17922 29.5041 3.23585 29.7853 3.66887C30.0598 4.09191 29.8418 4.47164 29.5873 4.82972C27.9434 7.14474 25.995 9.00342 22.98 9.28988C22.371 9.34817 22.2895 9.69459 22.5973 10.1659C23.7304 11.903 24.7121 13.7534 26.2512 15.1957C27.5939 16.4548 29.0166 17.4091 31.0299 17.1759C32.5373 17.0011 33.524 18.0503 33.5356 19.5692C33.5456 20.89 33.4791 22.214 33.5556 23.5298C33.6122 24.5024 33.2228 25.2102 32.5723 25.8381C30.9799 27.377 29.0049 28.1198 26.8835 28.5562C24.802 28.9842 22.6938 28.8876 20.2113 28.8826H20.2097ZM20.7238 27.3171C22.97 27.3637 25.2146 27.387 27.4192 26.8307C28.7653 26.491 30.0432 25.9997 31.1147 25.0837C31.5706 24.6939 31.9649 24.2576 31.9616 23.6014C31.9566 22.309 31.9699 21.0165 31.9367 19.7241C31.9134 18.8098 31.3576 18.4767 30.5174 18.8781C29.5041 19.3594 28.9267 20.1888 28.8003 21.308C28.7537 21.726 28.8036 22.1557 28.7354 22.5671C28.6322 23.1933 28.1197 23.3499 27.5956 23.3282C27.0482 23.3066 27.1913 22.8386 27.1713 22.4888C27.1014 21.253 27.2895 20.0672 27.9617 19.0146C28.2878 18.5033 28.1447 18.2951 27.6439 18.0836C26.97 17.8005 26.366 17.3941 25.7986 16.9228C23.8369 15.2906 22.6023 13.1055 21.2712 10.9937C20.7604 10.1826 20.6989 10.1509 20.01 10.8388C19.5441 11.3034 19.1082 11.0436 18.7188 10.8038C18.2546 10.5157 18.5574 10.1726 18.7787 9.88279C19.8353 8.49877 21.2712 7.82758 22.9767 7.71766C24.6406 7.61107 25.8286 6.65508 26.9517 5.56919C27.0698 5.45427 27.193 5.31104 27.0798 5.12617C26.9966 4.9896 26.8485 4.99626 26.7038 5.00293C24.6589 5.09286 22.8636 4.38003 21.188 3.28248C19.5874 2.23323 18.6157 2.35148 17.2297 3.69719C16.1997 4.69648 15.4959 5.90395 14.9402 7.19803C14.669 7.82925 14.2963 7.78262 13.8021 7.5761C13.2697 7.35459 13.2796 6.99984 13.5009 6.55349C13.9003 5.74906 14.2563 4.91965 14.8037 4.1985C15.1249 3.7738 15.04 3.50399 14.5808 3.27249C13.9502 2.95438 13.2846 2.74786 12.6041 2.56799C10.0234 1.88348 7.54093 2.53468 5.05344 3.11094C4.58922 3.21753 4.40952 3.60892 4.27308 4.02695C3.01519 7.87588 2.30638 11.8031 2.51104 15.8719C2.71403 19.9123 3.99522 23.4598 7.17488 26.1379C8.29467 27.0806 9.56088 27.6019 11.0584 27.3287C11.2946 27.2854 11.6307 27.372 11.7106 27.0672C11.7871 26.7758 11.4643 26.6625 11.2896 26.4926C9.53592 24.7805 8.28801 22.7953 7.92196 20.3237C7.84875 19.834 7.73061 19.3327 8.43443 19.2195C9.11662 19.1096 9.34124 19.4377 9.44607 20.1005C10.0301 23.7696 13.6058 27.8117 18.0283 27.3321C18.9168 27.2355 19.8237 27.3187 20.7221 27.3187L20.7238 27.3171Z" fill="white"/>
<path d="M20.1264 14.5378C20.8402 14.5112 21.5491 15.2307 21.5657 15.9968C21.584 16.8345 21.01 17.4541 20.1913 17.4841C19.376 17.5124 18.7388 16.9245 18.6972 16.1034C18.6556 15.294 19.3178 14.5678 20.1264 14.5378Z" fill="white"/>
<path d="M31.4303 21.2247C31.3537 21.7843 31.2655 22.3423 30.6 22.3173C29.9344 22.2923 29.7498 21.7627 29.7581 21.1897C29.7664 20.6501 29.9661 20.1288 30.58 20.1322C31.2556 20.1372 31.3637 20.7217 31.4303 21.2247Z" fill="white"/>
</svg>
