<svg width="30" height="30" viewBox="0 0 30 30" fill="none" xmlns="http://www.w3.org/2000/svg">
<circle cx="15" cy="15" r="15" fill="white"/>
<path d="M22 9.86644C21.9837 10.1162 21.9402 10.3636 21.8701 10.6045L21.6267 11.7195L21.3832 12.7717C21.3832 13.1329 21.2371 13.4941 21.156 13.8396C21.0748 14.1851 20.9937 14.5463 20.9287 14.8918C20.8638 15.2373 20.8151 15.41 20.7502 15.677C20.6853 15.944 20.5879 16.2267 20.5879 16.4779L20.1983 18.2525C20.1009 18.6765 20.0198 19.0848 19.9224 19.4931C19.825 19.9015 19.7439 20.3098 19.6627 20.7024C19.6173 20.9749 19.5467 21.243 19.4517 21.5033C19.4074 21.6076 19.3413 21.7019 19.2575 21.7803C19.1737 21.8587 19.074 21.9194 18.9648 21.9587C18.7963 22.0138 18.6138 22.0138 18.4454 21.9587C18.2527 21.8671 18.0771 21.745 17.926 21.5975L15.329 19.7758L14.5985 19.2576C14.5985 19.2576 14.5012 19.2576 14.4525 19.2576L12.9916 20.6239L12.6021 20.9693C12.5312 21.036 12.4474 21.0883 12.3554 21.1234C12.2635 21.1584 12.1653 21.1755 12.0665 21.1735C12.0665 21.1735 12.0665 21.1735 12.0665 21.0793V20.3412L12.1639 19.2733C12.1639 19.1162 12.1639 18.9592 12.1639 18.8022V18.0641C12.1564 17.928 12.1564 17.7918 12.1639 17.6557C12.1531 17.6309 12.1476 17.6042 12.1476 17.5772C12.1476 17.5503 12.1531 17.5236 12.1639 17.4987L13.3 16.525L14.1116 15.8183L15.4263 14.6719L16.5788 13.7454L17.6825 12.7874L18.348 12.2064L19.0459 11.5939C19.0916 11.5657 19.1304 11.5282 19.1595 11.484C19.1699 11.4751 19.1782 11.4643 19.1839 11.4521C19.1896 11.4399 19.1925 11.4267 19.1925 11.4133C19.1925 11.3999 19.1896 11.3867 19.1839 11.3745C19.1782 11.3624 19.1699 11.3515 19.1595 11.3426C19.1066 11.3269 19.0501 11.3269 18.9972 11.3426C18.8506 11.3794 18.7128 11.4434 18.5914 11.5311L15.9295 13.1015L14.42 14.0124L12.0989 15.4729L10.7193 16.3052L10.2486 16.5879C10.2309 16.5962 10.2114 16.6005 10.1918 16.6005C10.1721 16.6005 10.1526 16.5962 10.1349 16.5879L8.51182 16.0853L6.62899 15.5514C6.45738 15.4923 6.29386 15.4132 6.14205 15.3158C6.09751 15.279 6.06174 15.2332 6.03722 15.1817C6.0127 15.1302 6 15.0741 6 15.0174C6 14.9607 6.0127 14.9047 6.03722 14.8532C6.06174 14.8017 6.09751 14.7559 6.14205 14.719C6.32937 14.5435 6.55764 14.4142 6.80754 14.3421L9.06368 13.4941L11.7743 12.489L13.8681 11.7195L16.3353 10.8087L18.4454 10.0235L20.458 9.28538C20.6504 9.18513 20.8513 9.10107 21.0586 9.03411C21.1886 8.99304 21.3281 8.98897 21.4605 9.02238C21.5928 9.05578 21.7125 9.12527 21.8052 9.22256C21.9188 9.34415 21.9873 9.49885 22 9.66228V9.86644Z" fill="#141414"/>
</svg>
