<svg width="30" height="30" viewBox="0 0 30 30" fill="none" xmlns="http://www.w3.org/2000/svg">
<circle cx="15" cy="15" r="15" fill="white"/>
<path d="M23.8207 20.9018C22.9722 20.9034 22.1232 20.8949 21.2747 20.9071C21.0346 20.9108 20.9257 20.8182 20.8374 20.6097C20.3595 19.4807 19.692 18.4914 18.6164 17.8124C17.9928 17.4186 17.3133 17.1746 16.5872 17.0343C16.351 16.9888 16.2822 17.0566 16.2833 17.281C16.2887 18.366 16.2838 19.451 16.2827 20.5361C16.2822 20.905 16.2822 20.9066 15.9089 20.9092C13.9133 20.9225 12.0342 20.5181 10.3616 19.4045C9.03028 18.5179 8.06093 17.3291 7.37822 15.9122C6.63049 14.3588 6.27721 12.71 6.15476 11.0063C6.13417 10.7162 6.09949 10.4272 6.10166 10.1356C6.10274 9.98051 6.16831 9.91223 6.32923 9.91276C7.19617 9.91541 8.0631 9.91594 8.93004 9.91276C9.1717 9.9117 9.17441 10.079 9.18199 10.2399C9.208 10.8215 9.25243 11.4016 9.35646 11.9754C9.60679 13.36 10.0061 14.6912 10.8953 15.8323C11.4349 16.5251 12.1009 17.0693 12.9304 17.4069C13.3205 17.5657 13.3666 17.5366 13.3666 17.1307C13.3677 15.9927 13.3671 14.8547 13.3671 13.7167C13.3671 12.5788 13.3731 11.4233 13.3628 10.2764C13.3601 10.0229 13.4473 9.93711 13.7063 9.94187C14.4194 9.95457 15.133 9.94558 15.846 9.94611C16.2535 9.94664 16.2806 9.97045 16.2811 10.3616C16.2833 11.5435 16.2822 12.7259 16.2844 13.9078C16.2849 14.2905 16.2876 14.2916 16.6523 14.1936C17.8129 13.8808 18.6652 13.1578 19.3701 12.2411C19.8561 11.6091 20.2452 10.9253 20.4852 10.1668C20.541 9.9911 20.631 9.90747 20.8314 9.90959C21.6079 9.91858 22.3849 9.91858 23.1613 9.91011C23.403 9.90747 23.4523 9.99215 23.4052 10.2139C23.1131 11.5927 22.4033 12.7545 21.4724 13.802C20.9848 14.3508 20.4202 14.8166 19.8047 15.2242C19.5587 15.3872 19.5603 15.4004 19.8209 15.5465C21.8842 16.7003 23.3022 18.3708 24.0418 20.5832C24.1453 20.8923 24.1393 20.9008 23.8207 20.9013V20.9018Z" fill="black"/>
</svg>
